<?xml version="1.0" encoding="utf-8"?>
<!-- Generator: Adobe Illustrator 22.1.0, SVG Export Plug-In . SVG Version: 6.00 Build 0)  -->
<svg version="1.1" id="Layer_1" xmlns="http://www.w3.org/2000/svg" xmlns:xlink="http://www.w3.org/1999/xlink" x="0px" y="0px"
	 viewBox="0 0 440.4 441" style="enable-background:new 0 0 440.4 441;" xml:space="preserve">
<style type="text/css">
	.st0{fill:none;}
	.st1{fill:#508FCC;}
</style>
<g>
	<path class="st0" d="M220.3,73.9c9.3,0,16.9-7.6,16.9-16.9c0-5.3-7.8-18.5-16.9-30.8c-9.1,12.3-16.9,25.5-16.9,30.8
		C203.4,66.3,211,73.9,220.3,73.9z"/>
	<path class="st0" d="M362.9,73.9c9.3,0,16.9-7.6,16.9-16.9c0-5.3-7.8-18.5-16.9-30.8C353.8,38.5,346,51.8,346,57
		C346,66.3,353.6,73.9,362.9,73.9z"/>
	<path class="st0" d="M79.2,73.9c9.3,0,16.9-7.6,16.9-16.9c0-5.3-7.8-18.5-16.9-30.8C70.1,38.5,62.3,51.8,62.3,57
		C62.3,66.3,69.9,73.9,79.2,73.9z"/>
	<g>
		<path class="st1" d="M79.2,0c-3,0-5.8,1.3-7.7,3.6C64.7,11.8,42.3,39.8,42.3,57c0,20.4,16.6,36.9,37,36.9s36.9-16.6,36.9-36.9
			c0-17.2-22.4-45.2-29.3-53.4C85,1.3,82.2,0,79.2,0z M79.2,73.9c-9.3,0-16.9-7.6-16.9-16.9c0-5.2,7.8-18.5,16.9-30.8
			C88.3,38.5,96.1,51.7,96.1,57C96.1,66.3,88.6,73.9,79.2,73.9z"/>
		<path class="st1" d="M220.3,0c-3,0-5.8,1.3-7.7,3.6c-6.9,8.2-29.3,36.2-29.3,53.4c0,20.4,16.6,36.9,37,36.9s36.9-16.6,36.9-36.9
			c0-17.2-22.4-45.2-29.3-53.4C226.1,1.3,223.3,0,220.3,0z M220.3,73.9c-9.3,0-16.9-7.6-16.9-16.9c0-5.2,7.8-18.5,16.9-30.8
			c9.1,12.3,16.9,25.5,16.9,30.8C237.2,66.3,229.6,73.9,220.3,73.9z"/>
		<path class="st1" d="M370.6,3.6c-1.9-2.3-4.7-3.6-7.7-3.6s-5.8,1.3-7.7,3.6c-6.9,8.2-29.3,36.2-29.3,53.4
			c0,20.4,16.6,36.9,37,36.9s36.9-16.6,36.9-36.9C399.8,39.8,377.4,11.8,370.6,3.6z M362.9,73.9c-9.3,0-16.9-7.6-16.9-16.9
			c0-5.2,7.8-18.5,16.9-30.8c9.1,12.3,16.9,25.5,16.9,30.8C379.8,66.3,372.2,73.9,362.9,73.9z"/>
	</g>
	<g>
		<path class="st0" d="M306.7,300l-0.4,0.5c-19.8,28.5-52.2,45.5-86.6,45.7c0,0,0,0-0.1,0s0,0-0.1,0c-34.4-0.1-66.8-17.2-86.6-45.6
			l-0.4-0.5c-10.5-15.4-28.3-24.9-46.5-24.9c-2.6,0-5.3,0.1-7.9,0.4V410h283.1V275.5c-2.7-0.3-5.4-0.4-8.1-0.4
			C335,275.1,317.2,284.6,306.7,300z"/>
		<path class="st1" d="M424.9,174.1h-47v-32.7c0-8.6-6.9-15.5-15.5-15.5s-15.5,6.9-15.5,15.5v32.7H236.2v-32.7
			c0-8.6-6.9-15.5-15.5-15.5s-15.5,6.9-15.5,15.5v32.7H94.7v-32.7c0-8.6-6.9-15.5-15.5-15.5s-15.5,6.9-15.5,15.5v32.7H15.5
			C6.9,174.1,0,181,0,189.6v124.8c0,8.2,6.4,15,14.6,15.5s15.3-5.5,16.3-13.7c1.6-13.4,7.8-23,16.3-29.5v138.9
			c0,8.6,6.9,15.5,15.5,15.5h314.1c8.6,0,15.5-6.9,15.5-15.5V287c9.8,7.4,15.7,17.9,17.2,30.2c1,8.2,8.1,14.1,16.3,13.7
			c8.2-0.5,14.6-7.3,14.6-15.5V189.6C440.4,181.1,433.4,174.1,424.9,174.1z M361.3,410H78.2V275.5c2.7-0.3,5.3-0.4,7.9-0.4
			c18.2,0,36,9.5,46.5,24.9l0.4,0.5c19.8,28.4,52.2,45.5,86.6,45.6c0,0,0,0,0.1,0s0,0,0.1,0c34.4-0.1,66.8-17.2,86.6-45.7l0.4-0.5
			c10.5-15.4,28.3-24.9,46.5-24.9c2.8,0,5.5,0.1,8.1,0.4V410H361.3z M409.4,261c-5.2-3.7-10.9-6.9-17.1-9.4c-9.5-4-20-6.4-31-7.2
			c-2.7-0.2-5.4-0.3-8.1-0.3c-28.7,0-55.7,14.4-72,38.4l-0.3,0.4c-14,20.1-36.9,32.2-61.2,32.3c-24.3-0.1-47.2-12.2-61.1-32.2
			l-0.3-0.4c-16.4-24.1-43.3-38.4-72.1-38.4c-2.7,0-5.3,0.1-7.9,0.3c-11.1,0.8-21.6,3.1-31,7c-5.8,2.4-11.2,5.3-16.2,8.8v-55h378.4
			V261H409.4z"/>
	</g>
</g>
</svg>
