<?xml version="1.0" encoding="utf-8"?>
<!-- Generator: Adobe Illustrator 22.1.0, SVG Export Plug-In . SVG Version: 6.00 Build 0)  -->
<svg version="1.1" id="Layer_1" xmlns="http://www.w3.org/2000/svg" xmlns:xlink="http://www.w3.org/1999/xlink" x="0px" y="0px"
	 viewBox="0 0 240.9 347.4" style="enable-background:new 0 0 240.9 347.4;" xml:space="preserve">
<style type="text/css">
	.st0{fill:#508FCC;}
	.st1{fill:#542E89;}
	.st2{fill:#221F1F;}
	.st3{fill:#C82D5A;}
	.st4{fill:none;}
</style>
<g>
	<g>
		<g>
			<path class="st0" d="M120.9,133.3V38c-26.3,0-47.7,21.3-47.7,47.7S94.5,133.3,120.9,133.3z"/>
		</g>
		<g>
			<path class="st1" d="M168.5,85.6c0-26.3-21.3-47.7-47.7-47.7v95.3C147.2,133.3,168.5,111.9,168.5,85.6z"/>
		</g>
		<g>
			<path class="st0" d="M98.4,150.3c6.4-2.6,13.3-4.1,20.5-4.1l-7.9,0.1c-23.2,0-39.6-5.5-50.1-16.8c-11-11.7-16.3-28.6-16.3-51.4
				c0-8.8,1.3-16.9,3.8-24.2s6-13.9,10.4-19.5c7.2-9.3,5.4-22.7-3.9-29.9c-4.5-3.5-10.1-5-15.7-4.2C33.6,1,28.5,3.9,25.1,8.4
				C18,17.7,12.3,28.3,8.2,39.9C4.1,51.6,2,64.5,2,78.1c0,33.7,9.4,60.8,27.8,80.5c10.2,10.9,23,18.9,38.2,24c0.5-1.3,1-2.7,1.6-4
				C75.3,165.6,85.7,155.6,98.4,150.3"/>
		</g>
		<g>
			<polygon class="st2" points="128.3,146.3 119,146.2 128.2,146.3 			"/>
		</g>
		<g>
			<path class="st1" d="M229.2,246.2c-7.6-11.6-18.6-21.1-32-27.5c-7.3-3.5-15.1-5.9-22.4-7c-0.3,1.5-0.7,3-1.2,4.5
				c-0.9,2.7-2,5.4-3.2,7.9c-9.3,18.2-27.7,29.5-48,29.5h44.5c4.2,0,18.9,3.9,26.7,15.8c7.3,11.3,6.4,27.5-2.7,48.1
				c-4.8,10.7,0.1,23.3,10.8,28.1c2.7,1.2,5.6,1.8,8.6,1.8c8.4,0,16.1-5,19.5-12.7C240.3,311,248.7,276.3,229.2,246.2z"/>
		</g>
		<g>
			<path class="st2" d="M98.3,150.3h0.1"/>
		</g>
		<g>
			<path class="st3" d="M101.6,184.9L101.6,184.9L101.6,184.9L101.6,184.9z"/>
		</g>
		<g>
			<g>
				<path class="st4" d="M101.6,184.9L101.6,184.9L101.6,184.9L101.6,184.9z"/>
			</g>
			<g>
				<path class="st4" d="M118.8,188.8c-6.2,0-11.2,5.1-11.2,11.3c0,5.3,3.7,9.8,8.8,11h5.9c6.2,0,11.3-5.1,11.3-11.3
					c0-4.9-3.2-9.4-7.8-10.9L118.8,188.8L118.8,188.8z"/>
			</g>
			<g>
				<path class="st1" d="M98.3,150.3c-12.6,5.2-23.1,15.2-28.8,28.2c-0.6,1.3-1.1,2.6-1.6,4C66,188.1,65,194,65,200
					c0,3.9,0.4,7.8,1.3,11.6c1.6-0.2,3.1-0.4,4.6-0.5c1.2-0.1,2.3-0.1,3.3-0.1H77h14.3h25.1c-5.1-1.1-8.8-5.7-8.8-11
					c0-6.2,5-11.2,11.2-11.3h0.1l7,0.1l7,0.1h5.3h0.1c1.9-0.1,3.8-0.2,5.6-0.4c9.1-0.8,17.7-2.3,25.6-4.6c1.3-0.4,2.6-0.8,4-1.2
					c0.5-0.2,1.1-0.4,1.6-0.6c14.4-5,26.7-13,36.7-23.7c18.5-19.7,27.8-46.8,27.8-80.5c0-13.6-2.1-26.4-6.2-38.2
					c-4-11.6-9.7-22.2-16.9-31.5c-3.5-4.4-8.5-7.3-14.2-8c-5.6-0.7-11.2,0.8-15.7,4.2c-9.3,7.2-11.1,20.6-3.9,29.9
					c4.4,5.7,7.9,12.2,10.4,19.5c2.5,7.2,3.8,15.4,3.8,24.2c0,22.9-5.3,39.7-16.3,51.4c-10.6,11.3-27,16.8-50.2,16.8h-2.2l-9.4-0.1
					C111.6,146.1,104.7,147.5,98.3,150.3"/>
			</g>
		</g>
		<g>
			<path class="st0" d="M173.4,182.7c-1.4,0.5-2.7,0.9-4,1.2c-7.9,2.3-16.5,3.8-25.6,4.6c-1.9,0.2-3.7,0.3-5.6,0.4h-0.1h-5.3l-7-0.1
				c4.5,1.5,7.8,6,7.8,10.9c0,6.2-5.1,11.3-11.3,11.3h-5.9H91.3H77h-2.8c-1,0-2.2,0-3.3,0.1c-1.5,0.1-3,0.3-4.6,0.5
				c-7.3,1.1-15.1,3.5-22.5,7c-13.3,6.4-24.4,15.9-32,27.5c-19.6,30.1-11.1,64.8-0.5,88.6c3.4,7.7,11.1,12.7,19.5,12.7
				c3,0,5.9-0.6,8.6-1.8c10.7-4.8,15.6-17.4,10.8-28.1c-9.2-20.6-10.1-36.8-2.7-48.1c7.7-11.9,22.5-15.8,26.7-15.8h48.1
				c20.4,0,38.8-11.3,48-29.5c1.3-2.5,2.4-5.2,3.2-7.9c0.5-1.5,0.9-3,1.2-4.5c0.9-3.9,1.3-7.9,1.3-11.9
				C176.2,193.9,175.2,188.2,173.4,182.7z"/>
		</g>
	</g>
</g>
</svg>
