<?xml version="1.0" encoding="utf-8"?>
<!-- Generator: Adobe Illustrator 22.1.0, SVG Export Plug-In . SVG Version: 6.00 Build 0)  -->
<svg version="1.1" id="Layer_1" xmlns="http://www.w3.org/2000/svg" xmlns:xlink="http://www.w3.org/1999/xlink" x="0px" y="0px"
	 viewBox="0 0 75.5 77" style="enable-background:new 0 0 75.5 77;" xml:space="preserve">
<style type="text/css">
	.st0{fill:#8B8AAC;}
</style>
<g>
	<polygon class="st0" points="23.1,42.5 36.8,42.4 42.5,48.2 46.8,44 39.3,36.5 23.1,36.5 	"/>
	<path class="st0" d="M53,32.3h22.5V9.7h-5.9l-3.2,3.2l-2-2C49.8-3.7,25.8-3.7,11.1,11.1c-6.8,6.8-10.6,15.5-11,25.1l0,0l-0.1,3
		C0,60,17,77,37.8,77v-3v-3v-4c15.4,0,27.8-12.5,27.8-27.8h-6c0,12.1-9.8,21.9-21.9,21.9c-12,0-21.8-9.8-21.8-21.9
		c-0.3-6.3,2.1-12.6,6.4-16.9c8.6-8.6,22.5-8.7,30.9-0.2l2,2l-2.3,2.3L53,32.3L53,32.3z"/>
</g>
</svg>
