<?xml version="1.0" encoding="utf-8"?>
<!-- Generator: Adobe Illustrator 22.1.0, SVG Export Plug-In . SVG Version: 6.00 Build 0)  -->
<svg version="1.1" id="Layer_1" xmlns="http://www.w3.org/2000/svg" xmlns:xlink="http://www.w3.org/1999/xlink" x="0px" y="0px"
	 viewBox="0 0 441.5 440.8" style="enable-background:new 0 0 441.5 440.8;" xml:space="preserve">
<style type="text/css">
	.st0{fill:#508FCC;}
</style>
<g>
	<path class="st0" d="M315,409.8H31v-332h63.5v-31h-79C6.9,46.8,0,53.7,0,62.3v363c0,8.6,6.9,15.5,15.5,15.5h315
		c8.6,0,15.5-6.9,15.5-15.5v-127h-31V409.8z"/>
	<path class="st0" d="M315,188.3h31v-126c0-8.6-6.9-15.5-15.5-15.5h-78.4v31H315V188.3z"/>
	<path class="st0" d="M125.4,218.9c123.7-67.3,33.6-143.2,0-92.2C92.1,75.6,2,151.6,125.4,218.9z"/>
	<path class="st0" d="M219.1,47.6C219.1,21.3,198.3,0,172,0s-46.6,21.3-46.6,47.6v30.2h94.2L219.1,47.6z"/>
	<path class="st0" d="M418.5,220.9h-119c-8.4,0-16.2,4.6-20.2,12.1l-12.6,23.2l-17-68.4c-2.4-9.5-10.4-16.4-20.1-17.3
		c-9.7-0.9-18.9,4.3-23.1,13.2l-31.7,68H85.5c-12.7,0-23,10.3-23,23s10.3,23,23,23h104c8.9,0,17.1-5.2,20.8-13.3l10.4-22.3
		l15.6,62.9c2.3,9.2,10,16.1,19.4,17.3c1,0.1,1.9,0.2,2.9,0.2c8.4,0,16.2-4.6,20.2-12.1l34.3-63.3h105.3c12.7,0,23-10.3,23-23
		S431.2,220.9,418.5,220.9z"/>
	<path class="st0" d="M189.5,376.6c12.7,0,23-10.3,23-23s-10.3-23-23-23h-104c-12.7,0-23,10.3-23,23s10.3,23,23,23H189.5z"/>
</g>
</svg>
