<?xml version="1.0" encoding="utf-8"?>
<!-- Generator: Adobe Illustrator 21.1.0, SVG Export Plug-In . SVG Version: 6.00 Build 0)  -->
<svg version="1.1" id="Layer_1" xmlns="http://www.w3.org/2000/svg" xmlns:xlink="http://www.w3.org/1999/xlink" x="0px" y="0px"
	 viewBox="0 0 440.6 441.7" style="enable-background:new 0 0 440.6 441.7;" xml:space="preserve">
<g>
	<circle cx="220.3" cy="56" r="55.8"/>
	<path d="M331.3,242.3l-64.7-93.2c-2.9-4.2-7.7-6.7-12.7-6.7c0,0,0,0,0,0l-66.5,0c-5,0-9.8,2.5-12.7,6.6l-65.5,93.1
		c-4.9,7-3.2,16.7,3.8,21.6c7,4.9,16.7,3.2,21.6-3.8l60.8-86.6l50.4,0l60,86.5c3,4.3,7.8,6.7,12.7,6.7c3,0,6.1-0.9,8.8-2.8
		C334.5,259,336.2,249.4,331.3,242.3z"/>
	<path d="M258,244c-2.9-4.2-7.7-6.7-12.7-6.7h-49c-5.1,0-9.9,2.5-12.8,6.8l-43,63.3c-3.2,4.7-3.6,10.9-0.9,16s8,8.2,13.7,8.2h19.6
		l-0.7,94.4c-0.1,8.6,6.8,15.5,15.4,15.6c0,0,0.1,0,0.1,0c8.5,0,15.4-6.9,15.5-15.4l0.7-94.6h32.3l1.1,94.7
		c0.1,8.5,7,15.3,15.5,15.3c0.1,0,0.1,0,0.2,0c8.6-0.1,15.4-7.1,15.3-15.7l-1.1-94.3h22.1c5.8,0,11.1-3.2,13.7-8.3s2.3-11.3-1-16
		L258,244z"/>
</g>
</svg>
