<?xml version="1.0" encoding="utf-8"?>
<!-- Generator: Adobe Illustrator 22.1.0, SVG Export Plug-In . SVG Version: 6.00 Build 0)  -->
<svg version="1.1" id="Layer_1" xmlns="http://www.w3.org/2000/svg" xmlns:xlink="http://www.w3.org/1999/xlink" x="0px" y="0px"
	 viewBox="0 0 90 90" style="enable-background:new 0 0 90 90;" xml:space="preserve">
<style type="text/css">
	.st0{fill:#CCCCCC;}
</style>
<g>
	<path class="st0" d="M87.5,5h-40V2.5C47.5,1.1,46.4,0,45,0s-2.5,1.1-2.5,2.5V5h-40C1.1,5,0,6.1,0,7.5v55C0,63.9,1.1,65,2.5,65h40
		v9.1L33,85.9c-0.9,1.1-0.7,2.7,0.4,3.5c1.1,0.9,2.7,0.7,3.5-0.4l5.5-6.9v5.4c0,1.4,1.1,2.5,2.5,2.5s2.5-1.1,2.5-2.5v-5.4l5.5,6.9
		c0.5,0.6,1.2,0.9,2,0.9c0.5,0,1.1-0.2,1.6-0.5c1.1-0.9,1.3-2.4,0.4-3.5l-9.5-11.8V65h40c1.4,0,2.5-1.1,2.5-2.5v-55
		C90,6.1,88.9,5,87.5,5z M79.3,24.3l-15,15c-0.6,0.6-1.5,0.9-2.4,0.7l-18.6-4.7L31.8,46.8c-0.6,0.6-1.5,0.9-2.4,0.7l-8.6-2.2
		l-6.5,6.5c-0.5,0.5-1.1,0.7-1.8,0.7s-1.3-0.2-1.8-0.7c-1-1-1-2.6,0-3.5l7.5-7.5c0.6-0.6,1.5-0.9,2.4-0.7l8.6,2.2l11.5-11.5
		c0.6-0.6,1.5-0.9,2.4-0.7l18.6,4.7l14-14c1-1,2.6-1,3.5,0C80.2,21.7,80.2,23.3,79.3,24.3z"/>
</g>
</svg>
