<?xml version="1.0" encoding="utf-8"?>
<!-- Generator: Adobe Illustrator 22.1.0, SVG Export Plug-In . SVG Version: 6.00 Build 0)  -->
<svg version="1.1" id="Layer_1" xmlns="http://www.w3.org/2000/svg" xmlns:xlink="http://www.w3.org/1999/xlink" x="0px" y="0px"
	 viewBox="0 0 681.4 681.4" style="enable-background:new 0 0 681.4 681.4;" xml:space="preserve">
<style type="text/css">
	.st0{fill:#999999;}
</style>
<g>
	<g>
		<path class="st0" d="M681.4,681.4H0V0h681.4V681.4z M20,661.4h641.4V20H20V661.4z"/>
	</g>
	<g>
		<path class="st0" d="M325.8,363.5c0-22.6-4-34.6-37.2-39.9c-4.7-0.7-6-2-6-4.7v-6c0-2,1.3-3.3,4.7-4.7c21.3-8,46.5-18.6,71.8-32.6
			c5.3-2.7,8.6-4,12.6-4c3.3,0,4,3.3,3.3,8c-1.3,11.3-1.3,53.2-1.3,108.3v72.4c0,25.9,0,49.8,0.7,57.2c1.3,12.6,3.3,17.3,10.6,17.3
			h30.6c5.3,0,6.6,2,6.6,6v11.3c0,4.7-1.3,6.6-6,6.6c-5.3,0-35.9-2-63.8-2c-38.5,0-64.5,2-71.8,2c-3.3,0-5.3-1.3-5.3-5.3v-13.3
			c0-4,2-5.3,6.6-5.3h32.6c7.3,0,10-2.7,10.6-13.3c0.7-19.9,0.7-40.5,0.7-60.5V363.5z M294.6,159.5c0-17.3,14.6-37.2,41.9-37.2
			c24.6,0,35.9,19.9,35.9,35.2c0,17.9-12,39.2-39.9,39.2C317.2,196.7,294.6,181.4,294.6,159.5z"/>
	</g>
</g>
</svg>
