<?xml version="1.0" encoding="utf-8"?>
<!-- Generator: Adobe Illustrator 22.1.0, SVG Export Plug-In . SVG Version: 6.00 Build 0)  -->
<svg version="1.1" id="Layer_1" xmlns="http://www.w3.org/2000/svg" xmlns:xlink="http://www.w3.org/1999/xlink" x="0px" y="0px"
	 viewBox="0 0 332.4 448.6" style="enable-background:new 0 0 332.4 448.6;" xml:space="preserve">
<style type="text/css">
	.st0{fill:none;}
	.st1{fill:#008080;}
	.st2{fill:#1E66A1;}
	.st3{fill:#F87DB3;}
</style>
<g>
	<path class="st0" d="M166.2,78c-21.6,0-39.1,17.5-39.1,39.1c0,8.6,2.7,16.7,7.9,23.5l31.2,41.3l31.2-41.3c5.2-6.8,7.9-15,7.9-23.5
		C205.3,95.5,187.8,78,166.2,78z"/>
	<polygon class="st0" points="222.6,256.4 222.6,236.6 215.1,246.5 	"/>
	<polygon class="st0" points="112.1,239.6 112.1,253.4 117.3,246.5 	"/>
	<path class="st1" d="M49.1,117.1c0,25.7,8.2,50.1,23.7,70.6l39.3,52V13.3C74.7,32.8,49.1,72,49.1,117.1z"/>
	<polygon class="st1" points="0,401.6 62.2,448.6 112.1,382.7 112.1,253.4 	"/>
	<polygon class="st2" points="332.4,401.6 222.6,256.4 222.6,385.7 270.2,448.6 	"/>
	<path class="st2" d="M259.6,187.7c15.5-20.5,23.7-44.9,23.7-70.6c0-44.1-24.5-82.6-60.7-102.6v222.1L259.6,187.7z"/>
	<path class="st3" d="M215.1,246.5l7.5-9.9V14.5C205.9,5.3,186.6,0,166.2,0c-19.5,0-37.9,4.8-54.1,13.3v226.4l5.2,6.9l-5.2,6.9
		v129.3l54.1-71.5l56.4,74.6V256.4L215.1,246.5z M197.4,140.6l-31.2,41.3L135,140.6c-5.2-6.8-7.9-15-7.9-23.5
		c0-21.6,17.5-39.1,39.1-39.1s39.1,17.5,39.1,39.1C205.3,125.7,202.6,133.8,197.4,140.6z"/>
</g>
</svg>
