<?xml version="1.0" encoding="utf-8"?>
<!-- Generator: Adobe Illustrator 22.1.0, SVG Export Plug-In . SVG Version: 6.00 Build 0)  -->
<svg version="1.1" id="Layer_1" xmlns="http://www.w3.org/2000/svg" xmlns:xlink="http://www.w3.org/1999/xlink" x="0px" y="0px"
	 viewBox="0 0 284.2 441.7" style="enable-background:new 0 0 284.2 441.7;" xml:space="preserve">
<style type="text/css">
	.st0{fill:#FFFFFF;}
	.st1{fill:#008080;}
</style>
<g>
	<g>
		<path class="st0" d="M145.7,209.4l35-46.9l11-14.7c1.6-2,3-4.3,4.7-7.2c2.6-4.6,4.7-9.4,6-14.3c1.3-4.8,1.9-9.6,1.9-14.4v-0.1
			l-0.5-7.5c-0.2-2.4-0.8-4.8-1.3-7.1c-1.1-4.4-2.6-8.8-4.7-13c-1.8-3.8-4.2-7.5-6.9-11.1c-4.5-6.1-10.3-11.3-17.1-15.5
			c-2.7-1.7-5.6-3.2-8.5-4.4l-0.1,0c-2.7-1.1-5.3-2.1-7.7-2.6c-1.9-0.5-3.5-0.8-5-1.1c-0.6-0.1-1.1-0.2-1.7-0.3l-0.1,0l-3.6-0.4
			l-1.7-0.1V3.7l0.3,0l5.4,0C152,4,152.7,4,153,4l1.1,0.1l3.3,0.3c3.8,0.5,7.5,1.1,11.2,1.9c4,0.9,8.5,2.2,13.5,4
			c5.4,2,10.5,4.3,15.3,7c11.9,6.6,22.3,15.2,30.9,25.5c4.9,5.8,9.3,12.2,13,19c4,7.6,7.2,15.3,9.3,22.9c1,3.9,2,8.1,2.8,12.8
			l1.2,9.4l0.2,3.6c0.5,9.1-0.3,18.6-2.4,28.2c-2,9.1-5.3,18.2-9.8,26.8c-2.8,5.3-5,9-7.1,12.2l-32.6,48.2l-11.4,16.7l-45.8,67.3
			V209.4z"/>
		<path d="M150.8,7.2c0.9,0.2,1.6,0.3,2.1,0.3l0.9,0.1l1.6,0.1l1.6,0.1c3.8,0.4,7.3,1.1,10.9,1.9l0,0l0,0c3.8,0.8,8.2,2.1,13,3.8
			c5.2,1.9,10.2,4.2,14.8,6.7c11.5,6.4,21.6,14.7,30,24.7c4.8,5.6,9,11.8,12.6,18.4c3.9,7.3,6.9,14.8,9,22.1c1,4,2,7.9,2.7,12.4
			l1.2,9.2l0.2,3.4c0.5,8.8-0.3,17.9-2.3,27.2c-2,8.8-5.1,17.6-9.5,25.9c-2.8,5.2-4.9,8.8-6.9,11.9L200,223.8l-11.4,16.7l-39.4,57.9
			v-87.8l34.3-45.9l11-14.7c1.7-2.2,3.2-4.5,5-7.7c2.8-4.9,4.9-9.9,6.3-15.1l0,0l0-0.1c1.4-5.1,2-10.2,2-15.2v-0.2l0-0.2l-0.5-7.4
			l0-0.1l0-0.1c-0.2-2.5-0.8-5.1-1.3-7.5l0-0.1l0-0.1c-1.1-4.6-2.8-9.2-4.9-13.6l0,0l0,0c-1.9-4-4.3-7.9-7.2-11.6
			c-4.8-6.5-10.9-12-18-16.4c-2.9-1.8-5.9-3.3-9-4.7l-0.1,0l-0.1,0c-2.8-1.1-5.5-2.1-8.1-2.8c-2-0.6-3.7-0.9-5.2-1.2
			c-0.6-0.1-1.1-0.2-1.6-0.3l-0.3-0.1l-0.3,0l-2-0.2v-38H150.8 M142.1,0.1v51.6L147,52l3.3,0.4c1.9,0.4,4,0.7,6.5,1.4
			c2.1,0.5,4.5,1.4,7.3,2.5c2.8,1.2,5.5,2.6,8.1,4.2c6.4,3.9,11.8,8.8,16.1,14.6c2.5,3.3,4.7,6.8,6.5,10.5c1.9,4,3.4,8.2,4.4,12.3
			c0.5,2.2,1,4.5,1.2,6.6l0.5,7.4c0,4.4-0.6,8.9-1.8,13.4c-1.3,4.6-3.2,9.1-5.7,13.5c-1.5,2.6-2.9,4.8-4.5,6.9l-11,14.7l-35.7,47.8
			v112.9l52.2-76.7l11.4-16.7l32.6-48.2c2.3-3.5,4.6-7.5,7.3-12.5c4.6-8.9,8-18.2,10.1-27.7c2.1-9.7,3-19.5,2.5-29.1l-0.2-3.7
			l-1.2-9.6c-0.8-4.9-1.9-9.3-2.9-13.2c-2.3-8.2-5.6-16.1-9.6-23.6c-3.8-7-8.3-13.6-13.4-19.6c-8.9-10.6-19.7-19.5-31.9-26.3
			c-5-2.8-10.3-5.2-15.8-7.2c-5-1.8-9.7-3.2-13.9-4.1c-4.4-1-8.3-1.6-11.7-2c-1.1-0.1-2.2-0.2-3.3-0.3l-1.2-0.1
			c-0.2,0-0.5,0-0.7-0.1V0.2H146L142.1,0.1L142.1,0.1z"/>
	</g>
	<g>
		<polygon class="st0" points="165.8,347.5 202.2,294.2 279.3,397.9 224.8,436.7 		"/>
		<path d="M202.3,300.3l72,96.9l-48.6,34.6L170,347.6L202.3,300.3 M202.1,288.2l-40.5,59.3l62.3,94.2l60.3-43L202.1,288.2
			L202.1,288.2z"/>
	</g>
	<polygon class="st1" points="0,398.6 0.1,398.7 60,441.4 60.3,441.7 142.1,321.3 142.1,208.4 	"/>
	<path class="st1" d="M139.2,0.3l-4.7,0.1c-1.1,0-2.3,0.1-3.4,0.2l-1,0.1c-1.1,0.1-2.3,0.2-3.7,0.4c-1.8,0.2-3.8,0.5-5.8,0.9
		c-1.8,0.3-3.7,0.7-5.5,1.1c-4.4,1-9.1,2.4-14.1,4.2c-5.5,2-10.8,4.4-15.7,7.2c-12.3,6.8-23,15.7-31.9,26.3
		c-5.1,6-9.6,12.6-13.4,19.7c-4,7.5-7.2,15.4-9.6,23.7c-1,3.7-2.1,8.2-2.8,12.9l-0.3,2c-0.1,0.4-0.1,0.8-0.1,1.1l-1,10.5
		c-0.5,9.5,0.4,19.2,2.6,29c2.2,9.4,5.6,18.7,10.1,27.7c2.5,4.8,4.9,8.8,7.2,12.4L83,236.5l39.9-53.4l-27.3-37
		c-1.7-2.3-3.1-4.7-4.4-6.8c-2.5-4.5-4.5-9.1-5.7-13.5c-1.2-4.6-1.8-9.2-1.9-13.1l0.5-7.7c0.2-2.2,0.7-4.5,1.1-6.6
		c1-4.4,2.5-8.6,4.4-12.5c1.8-3.7,4-7.3,6.6-10.6c4.4-5.7,9.8-10.6,16.1-14.6c2.6-1.6,5.3-3,8.1-4.1c1.8-0.8,3.4-1.4,5-1.9
		c0.8-0.3,1.6-0.5,2.5-0.7c2.2-0.6,4.3-1,5.9-1.3l8.6-0.8V0.1L139.2,0V0.3z"/>
</g>
</svg>
