<?xml version="1.0" encoding="utf-8"?>
<!-- Generator: Adobe Illustrator 22.1.0, SVG Export Plug-In . SVG Version: 6.00 Build 0)  -->
<svg version="1.1" id="Layer_1" xmlns="http://www.w3.org/2000/svg" xmlns:xlink="http://www.w3.org/1999/xlink" x="0px" y="0px"
	 viewBox="0 0 284.2 441.7" style="enable-background:new 0 0 284.2 441.7;" xml:space="preserve">
<style type="text/css">
	.st0{fill:#F2F2F2;}
	.st1{fill:#6C6C6E;}
	.st2{fill:#FFFFFF;}
	.st3{fill:#D8D8DB;}
</style>
<g>
	<g>
		<g>
			<path class="st0" d="M6.5,397.5L185,158.9l-0.2-0.1l7.8-10.4c1.6-2.1,3.1-4.3,4.8-7.3c2.7-4.7,4.7-9.6,6.1-14.5
				c1.3-4.9,2-9.8,2-14.6v-0.2l-0.5-7.7c-0.2-2.4-0.8-4.8-1.3-7.2c-1.1-4.5-2.7-8.9-4.7-13.2c-1.9-3.9-4.2-7.6-7-11.3
				c-4.6-6.2-10.5-11.5-17.3-15.7c-2.8-1.7-5.7-3.2-8.7-4.5l-0.1-0.1c-2.7-1.1-5.4-2.1-7.8-2.7c-1.9-0.5-3.6-0.8-5-1.1
				c-0.6-0.1-1.1-0.2-1.7-0.3h-0.2l-3.7-0.5l-5.1-0.1l-9.1,0.8h-0.2c-1.9,0.4-3.9,0.8-6.2,1.4c-0.9,0.2-1.9,0.4-2.9,0.8
				c-1.8,0.6-3.5,1.2-5.3,2c-2.9,1.1-5.8,2.6-8.7,4.4c-6.8,4.3-12.6,9.6-17.3,15.7c-2.7,3.4-5.1,7.2-7.1,11.4
				c-2.1,4.3-3.7,8.8-4.7,13.5l-0.2,1.3c-0.4,1.8-0.8,3.9-0.9,5.9l-0.5,8v0.2c0.1,4.6,0.8,9.4,2,14.1c1.3,4.6,3.3,9.5,6.1,14.5
				l0.1,0.2l0.7,1.2c1.1,1.8,2.4,3.9,3.9,5.9l25.3,34.3l-34,45.6L50,177.3c-2.6-4.1-4.9-8-7-12c-4.3-8.6-7.6-17.6-9.7-26.6
				c-2.1-9.4-3-18.7-2.5-27.6l1-10.6c0,0,0-0.3,0-0.4V100l0.3-2.2c0.7-4.8,1.9-9.4,2.7-12.4c2.3-7.9,5.4-15.6,9.2-22.8
				c3.6-6.8,7.9-13.1,12.9-18.9c8.7-10.3,19-18.8,30.6-25.3c4.6-2.6,9.6-4.9,15.1-6.9c4.8-1.7,9.4-3.1,13.6-4c1.5-0.3,3.4-0.7,5.2-1
				h0.1c1.8-0.4,3.6-0.6,5.4-0.8h0.1c1.2-0.2,2.2-0.3,3.2-0.3l1.4-0.1c0.9-0.1,2-0.2,3-0.2l9.2-0.2V4.6l2.3,0.1h4.5
				c1,0.4,1.8,0.5,2.4,0.5l1,0.1l3.2,0.3c3.9,0.5,7.5,1.1,11.2,1.9c4,0.9,8.5,2.2,13.4,3.9c5.3,1.9,10.4,4.3,15.1,6.9
				c11.8,6.6,22.1,15.1,30.7,25.3c4.9,5.7,9.2,12.1,12.9,18.9c4,7.5,7.1,15.1,9.2,22.6c1,3.9,2,8.1,2.8,12.7l1.2,9.4l0.2,3.5
				c0.5,9-0.3,18.4-2.4,27.9c-2,9.1-5.3,18-9.7,26.6c-2.8,5.2-5,9-7.1,12.1L202,225.4l-11.4,16.7l-131.7,193L6.5,397.5z"/>
			<path class="st1" d="M145.1,9.2h0.7h0.1h0.1h3.7c1.2,0.4,2.3,0.5,2.9,0.5l0.8,0.1l3.1,0.3c3.7,0.4,7.2,1,10.6,1.8h0.1h0.1
				c3.7,0.8,8,2.1,12.7,3.8c5.1,1.9,10,4.1,14.5,6.6c11.3,6.3,21.2,14.4,29.4,24.2l0,0l0,0c4.7,5.5,8.8,11.6,12.3,18
				C240,71.7,243,79,245,86.2c1,3.9,2,7.8,2.7,12.2l1.1,9.1l0.2,3.4c0.4,8.6-0.3,17.6-2.3,26.7c-1.9,8.7-5,17.2-9.3,25.4
				c-2.8,5.1-4.9,8.7-6.8,11.7l-32.5,48.1l-11.4,16.7L57.8,428.7l-44.9-32.2l172.5-230.6l6.4-8.6l-0.2-0.1l4.5-6
				c1.7-2.2,3.3-4.7,5.1-7.8l0,0l0,0c2.8-5,5-10.2,6.5-15.5v-0.1v-0.1c1.4-5.2,2.1-10.5,2.1-15.7v-0.3v-0.3l-0.5-7.4v-0.1v-0.1
				c-0.3-2.6-0.8-5.3-1.4-7.7V96v-0.1c-1.2-4.7-2.8-9.5-5-14l0,0l0,0c-2-4.1-4.5-8.1-7.4-12c-5-6.7-11.2-12.4-18.6-16.9
				c-3-1.8-6.1-3.4-9.3-4.8l-0.1-0.1l-0.1-0.1c-2.8-1.1-5.6-2.2-8.3-2.8c-2.1-0.6-3.9-0.9-5.3-1.2c-0.5-0.1-1.1-0.2-1.6-0.3
				l-0.4-0.1h-0.4l-3.3-0.4l-0.4-0.1h-0.4l-4.6-0.1h-0.5h-0.5l-8.6,0.8h-0.4l-0.4,0.1c-1.5,0.3-3.9,0.7-6.4,1.4
				c-1,0.2-2.1,0.5-3.2,0.9c-1.9,0.6-3.6,1.3-5.6,2.1c-3.1,1.2-6.2,2.8-9.3,4.7h-0.1h-0.1c-7.2,4.5-13.3,10.1-18.4,16.7
				c-2.9,3.7-5.4,7.8-7.6,12.2c-2.2,4.6-4,9.5-5.1,14.4v0.2v0.2c-0.1,0.4-0.1,0.7-0.2,1.1c-0.4,1.9-0.8,4.1-1,6.4v0.1v0.1l-0.5,7.7
				v0.4v0.4c0.1,4.9,0.9,10.1,2.2,15.1l0,0l0,0c1.3,4.9,3.5,10.1,6.5,15.5l0.1,0.2l0.1,0.2c0.2,0.4,0.5,0.8,0.7,1.2
				c1.2,1.9,2.5,4.1,4.1,6.2l23.3,31.6l-28.2,37.7l-29.8-45.9c-2.6-4-4.7-7.7-6.7-11.6c-4.2-8.4-7.3-17-9.3-25.6
				c-2-9-2.8-17.9-2.4-26.3l1-10.3v-0.4v-0.2l0,0l0.3-2c0.7-4.6,1.8-8.9,2.6-11.8c2.2-7.6,5.2-15,8.9-21.9
				c3.5-6.5,7.6-12.6,12.3-18.1l0,0l0,0c8.3-9.9,18.2-18,29.4-24.2H90h0.1c4.3-2.5,9.1-4.7,14.3-6.5c4.6-1.7,9-3,13-3.9
				c1.4-0.3,3.3-0.7,5-1h0.1h0.1c1.6-0.3,3.4-0.6,5-0.8h0.1h0.1c1-0.1,1.9-0.2,2.9-0.3h0.3l0,0l0,0l1-0.1c0.9-0.1,1.8-0.2,2.6-0.2
				h0.1h0.1l4.7-0.1L145.1,9.2 M139.2,0v0.3l-4.7,0.1c-1.1,0-2.3,0.1-3.4,0.2l-1,0.1c-1.1,0.1-2.3,0.2-3.7,0.4
				c-1.8,0.2-3.8,0.5-5.8,0.9c-1.8,0.3-3.7,0.7-5.5,1.1c-4.4,1-9.1,2.4-14.1,4.2c-5.5,2-10.8,4.4-15.7,7.2
				c-12.3,6.8-23,15.7-31.9,26.3c-5.1,6-9.6,12.6-13.4,19.7c-4,7.5-7.2,15.4-9.6,23.7c-1,3.7-2.1,8.2-2.8,12.9l-0.3,2
				c-0.1,0.4-0.1,0.8-0.1,1.1l-1,10.5c-0.5,9.5,0.4,19.2,2.6,29c2.2,9.4,5.6,18.7,10.1,27.7c2.5,4.8,4.9,8.8,7.2,12.4L83,236.5
				l39.9-53.4l-27.3-37c-1.7-2.3-3.1-4.7-4.4-6.8c-2.5-4.5-4.5-9.1-5.7-13.5c-1.2-4.6-1.8-9.2-1.9-13.1l0.5-7.7
				c0.2-2.2,0.7-4.5,1.1-6.6c1-4.4,2.5-8.6,4.4-12.5c1.8-3.7,4-7.3,6.6-10.6c4.4-5.7,9.8-10.6,16.1-14.6c2.6-1.6,5.3-3,8.1-4.1
				c1.8-0.8,3.4-1.4,5-1.9c0.8-0.3,1.6-0.5,2.5-0.7c2.2-0.6,4.3-1,5.9-1.3l8.6-0.8L147,52l3.3,0.4c1.9,0.4,4,0.7,6.5,1.4
				c2.1,0.5,4.5,1.4,7.3,2.5c2.8,1.2,5.5,2.6,8.1,4.2c6.4,3.9,11.8,8.8,16.1,14.6c2.5,3.3,4.7,6.8,6.5,10.5c1.9,4,3.4,8.2,4.4,12.3
				c0.5,2.2,1,4.5,1.2,6.6l0.5,7.4c0,4.4-0.6,8.9-1.8,13.4c-1.3,4.6-3.2,9.1-5.7,13.5c-1.5,2.6-2.9,4.8-4.5,6.9l-11,14.7l0.2,0.1
				l-178,238L60,441.4l134.3-196.8l11.4-16.7l32.6-48.2c2.3-3.5,4.6-7.5,7.3-12.5c4.6-8.9,8-18.2,10.1-27.7c2.1-9.7,3-19.5,2.5-29.1
				l-0.2-3.7l-1.2-9.6c-0.8-4.9-1.9-9.3-2.9-13.2c-2.3-8.2-5.6-16.1-9.6-23.6c-3.8-7-8.3-13.6-13.4-19.6
				C222,30.1,211.2,21.2,199,14.4c-5-2.8-10.3-5.2-15.8-7.2c-5-1.8-9.7-3.2-13.9-4.1c-4.4-1-8.3-1.6-11.7-2
				c-1.1-0.1-2.2-0.2-3.3-0.3l-1.2-0.1c-0.2,0-0.5,0-0.7-0.1V0.2H146L139.2,0L139.2,0z"/>
		</g>
		<g>
			<polygon class="st0" points="167,347.5 202.3,296 277.9,397.7 225.1,435.3 			"/>
			<path class="st1" d="M202.4,303.7l69.1,93L226.3,429l-53.8-81.4L202.4,303.7 M202.1,288.2l-40.5,59.3l62.3,94.2l60.3-43
				L202.1,288.2L202.1,288.2z"/>
		</g>
		<g>
			<polygon class="st2" points="177.9,160.6 0,398.6 0.1,398.7 178,160.7 			"/>
			<polygon class="st3" points="177.9,160.6 0,398.6 0.1,398.7 178,160.7 			"/>
		</g>
		<g>
			<polygon class="st2" points="194.3,244.6 60,441.4 60.3,441.7 			"/>
			<polygon class="st3" points="194.3,244.6 60,441.4 60.3,441.7 			"/>
		</g>
	</g>
</g>
</svg>
