<?xml version="1.0" encoding="utf-8"?>
<!-- Generator: Adobe Illustrator 22.1.0, SVG Export Plug-In . SVG Version: 6.00 Build 0)  -->
<svg version="1.1" id="Layer_1" xmlns="http://www.w3.org/2000/svg" xmlns:xlink="http://www.w3.org/1999/xlink" x="0px" y="0px"
	 viewBox="0 0 332.4 448.6" style="enable-background:new 0 0 332.4 448.6;" xml:space="preserve">
<style type="text/css">
	.st0{fill:none;}
	.st1{fill:#FFFFFF;}
	.st2{fill:#6C6C6E;}
	.st3{fill:#008080;}
</style>
<g>
	<path class="st0" d="M127.1,117.1c0,8.6,2.7,16.7,7.9,23.5l31.2,41.3V78C144.6,78,127.1,95.5,127.1,117.1z"/>
	<path class="st0" d="M166.2,181.9l31.2-41.3c5.2-6.8,7.9-15,7.9-23.5c0-21.6-17.5-39.1-39.1-39.1c0,0,0,0,0,0L166.2,181.9
		L166.2,181.9z"/>
	<g>
		<path class="st1" d="M169.7,310V183.1l30.5-40.3c5.6-7.4,8.6-16.3,8.6-25.6c0-22.3-17.2-40.7-39.1-42.4V3.6
			c61,1.9,110.1,52.1,110.1,113.5c0,24.9-7.9,48.6-23,68.5l-46.1,60.9l116.8,154.4l-56.6,42.8L169.7,310z"/>
		<path class="st2" d="M173.2,7.2c57.5,3.6,103.1,51.5,103.1,109.9c0,24.2-7.7,47.1-22.3,66.4l-44.5,58.8l-3.2,4.2l3.2,4.2
			l113.1,149.5l-51,38.6l-98.4-130V184.2l29.8-39.4c6.1-8,9.3-17.6,9.3-27.8c0-23-17-42.2-39.1-45.6V7.2 M166.2,0v78c0,0,0,0,0,0
			c21.6,0,39.1,17.5,39.1,39.1c0,8.6-2.7,16.7-7.9,23.5l-31.2,41.3l0,0v129.3l0,0l104,137.5l62.2-47.1l-117.3-155l44.5-58.8
			c15.5-20.5,23.7-44.9,23.7-70.6C283.3,52.5,230.8,0,166.2,0L166.2,0z"/>
	</g>
	<path class="st3" d="M135,140.6c-5.2-6.8-7.9-15-7.9-23.5c0-21.6,17.5-39.1,39.1-39.1V0c0,0,0,0,0,0C101.6,0,49.1,52.5,49.1,117.1
		c0,25.7,8.2,50.1,23.7,70.6l44.5,58.8L0,401.6l62.2,47.1l104-137.5V181.9L135,140.6z"/>
</g>
</svg>
