<?xml version="1.0" encoding="utf-8"?>
<!-- Generator: Adobe Illustrator 22.1.0, SVG Export Plug-In . SVG Version: 6.00 Build 0)  -->
<svg version="1.1" id="Layer_1" xmlns="http://www.w3.org/2000/svg" xmlns:xlink="http://www.w3.org/1999/xlink" x="0px" y="0px"
	 viewBox="0 0 284.2 441.7" style="enable-background:new 0 0 284.2 441.7;" xml:space="preserve">
<style type="text/css">
	.st0{fill:#A8BCDD;}
	.st1{fill:#FBB03B;}
	.st2{fill:#29ABE2;}
	.st3{fill:#662D91;}
</style>
<g>
	<polygon class="st0" points="0,398.6 0.1,398.7 0.1,398.7 0.1,398.5 	"/>
	<polygon class="st0" points="284.1,398.5 284.1,398.7 284.2,398.7 	"/>
	<polygon class="st1" points="60.3,441.7 95.3,390.1 95.3,271 0.1,398.5 0.1,398.7 60,441.4 	"/>
	<path class="st1" d="M91.1,139.1c-2.5-4.5-4.5-9.1-5.7-13.5c-1.2-4.6-1.8-9.2-1.9-13.1l0.5-7.7c0.2-2.2,0.7-4.5,1.1-6.6
		c1-4.4,2.5-8.6,4.4-12.5c1.7-3.4,3.6-6.7,5.9-9.7V9.5c-3.5,1.5-6.9,3.1-10.1,5c-12.3,6.8-23,15.7-31.9,26.3
		c-5.1,6-9.6,12.6-13.4,19.7c-4,7.5-7.2,15.4-9.6,23.7c-1,3.7-2.1,8.2-2.8,12.9l-0.3,2c-0.1,0.4-0.1,0.8-0.1,1.1l-1,10.5
		c-0.5,9.5,0.4,19.2,2.6,29c2.2,9.4,5.6,18.7,10.1,27.7c2.5,4.8,4.9,8.8,7.2,12.4L83,236.5l12.6-16.8V146
		C93.7,143.5,92.3,141.2,91.1,139.1z"/>
	<path class="st2" d="M95.4,145.9l-0.1-0.1v73.7l27.4-36.6L95.4,145.9z"/>
	<path class="st3" d="M258.2,110.5l-0.2-3.7l-1.2-9.6c-0.8-4.9-1.9-9.3-2.9-13.2c-2.3-8.2-5.6-16.1-9.6-23.6
		c-3.8-7-8.3-13.6-13.4-19.6C222,30.2,211.2,21.3,199,14.5c-2.8-1.5-5.6-3-8.5-4.3v68.2c1.6,2.3,3,4.8,4.2,7.3
		c1.9,4,3.4,8.2,4.4,12.3c0.5,2.2,1,4.5,1.2,6.6l0.5,7.4c0,4.4-0.6,8.9-1.8,13.4c-1.3,4.6-3.2,9.1-5.7,13.5c-1,1.6-1.8,3-2.7,4.4
		V250l3.7-5.5l11.4-16.7l32.6-48.2c2.3-3.5,4.6-7.5,7.3-12.5c4.6-8.9,8-18.2,10.1-27.7C257.8,129.8,258.7,120.1,258.2,110.5z"/>
	<polygon class="st3" points="202.1,288.2 190.6,305.1 190.6,391.3 223.9,441.7 284.1,398.7 284.1,398.5 	"/>
	<path class="st2" d="M188.9,9.5c-1.8-0.8-3.7-1.6-5.6-2.2c-5-1.8-9.7-3.2-13.9-4.1c-4.4-1-8.3-1.6-11.7-2c-1.1-0.1-2.2-0.2-3.3-0.3
		l-1.2-0.1c-0.2,0-0.5,0-0.7-0.1V0.2H146L139.2,0v0.3l-4.7,0.1c-1.1,0-2.3,0.1-3.4,0.2l-1,0.1c-1.1,0.1-2.3,0.2-3.7,0.4
		c-1.8,0.2-3.8,0.5-5.8,0.9c-1.8,0.3-3.7,0.7-5.5,1.1c-4.4,1-9.1,2.4-14.1,4.2c-1.9,0.7-3.8,1.5-5.6,2.2v66.6
		c0.2-0.3,0.4-0.6,0.7-0.9c4.4-5.7,9.8-10.6,16.1-14.6c2.6-1.6,5.3-3,8.1-4.1c1.8-0.8,3.4-1.4,5-1.9c0.8-0.3,1.6-0.5,2.5-0.7
		c2.2-0.6,4.3-1,5.9-1.3l8.6-0.8L147,52l3.3,0.4c1.9,0.4,4,0.7,6.5,1.4c2.1,0.5,4.5,1.4,7.3,2.5c2.8,1.2,5.5,2.6,8.1,4.2
		c6.4,3.9,11.8,8.8,16.1,14.6c0.2,0.3,0.4,0.6,0.6,0.8c0.6,0.8,1.1,1.6,1.7,2.4V10.2C190,9.9,189.5,9.7,188.9,9.5z"/>
	<path class="st2" d="M188.9,145.8L188.9,145.8l-11,14.8L95.3,271v119.1l93.6-137.5l1.7-2.5V143.4C190,144.2,189.5,145,188.9,145.8z
		"/>
	<polygon class="st2" points="188.9,307.5 161.6,347.5 188.9,388.7 190.6,391.3 190.6,305.1 	"/>
</g>
</svg>
