<?xml version="1.0" encoding="utf-8"?>
<!-- Generator: Adobe Illustrator 22.1.0, SVG Export Plug-In . SVG Version: 6.00 Build 0)  -->
<svg version="1.1" id="Layer_1" xmlns="http://www.w3.org/2000/svg" xmlns:xlink="http://www.w3.org/1999/xlink" x="0px" y="0px"
	 viewBox="0 0 342.2 457" style="enable-background:new 0 0 342.2 457;" xml:space="preserve">
<style type="text/css">
	.st0{fill:#DEFFFC;}
	.st1{fill:#6C6C6E;}
</style>
<g>
	<path class="st0" d="M9.8,404.4L126.6,250l-46.1-60.9c-15-19.9-23-43.5-23-68.5C57.5,58,108.5,7,171.1,7
		c62.6,0,113.6,51,113.6,113.6c0,24.9-7.9,48.6-23,68.5L215.6,250l116.8,154.4l-56.6,42.8L171.1,308.8L66.4,447.2L9.8,404.4z
		 M171.1,78c-23.5,0-42.6,19.1-42.6,42.6c0,9.4,3,18.2,8.6,25.7l34,44.9l34-44.9c5.6-7.4,8.6-16.3,8.6-25.6
		C213.7,97.1,194.6,78,171.1,78z"/>
	<path class="st1" d="M171.1,10.5c60.7,0,110.1,49.4,110.1,110.1c0,24.2-7.7,47.1-22.3,66.4l-44.5,58.8l-3.2,4.2l3.2,4.2
		l113.1,149.5l-51,38.6l-99.8-131.9l-5.6-7.4l-5.6,7.4L65.7,442.3l-51-38.6l113.1-149.5l3.2-4.2l-3.2-4.2L83.3,187
		C68.7,167.7,61,144.8,61,120.6C61,59.9,110.4,10.5,171.1,10.5 M171.1,197l5.6-7.4l31.2-41.3c6.1-8,9.3-17.6,9.3-27.8
		c0-25.4-20.7-46.1-46.1-46.1S125,95.2,125,120.6c0,10.1,3.2,19.7,9.3,27.8l31.2,41.3L171.1,197 M171.1,3.5
		C106.5,3.5,54,56,54,120.6c0,25.7,8.2,50.1,23.7,70.6l44.5,58.8L4.9,405.1l62.2,47.1l104-137.5l104,137.5l62.2-47.1L220,250
		l44.5-58.8c15.5-20.5,23.7-44.9,23.7-70.6C288.2,56,235.7,3.5,171.1,3.5L171.1,3.5z M171.1,185.4l-31.2-41.3
		c-5.2-6.8-7.9-15-7.9-23.5c0-21.6,17.5-39.1,39.1-39.1s39.1,17.5,39.1,39.1c0,8.6-2.7,16.7-7.9,23.5L171.1,185.4L171.1,185.4z"/>
</g>
</svg>
