<?xml version="1.0" encoding="utf-8"?>
<!-- Generator: Adobe Illustrator 22.1.0, SVG Export Plug-In . SVG Version: 6.00 Build 0)  -->
<svg version="1.1" id="Layer_1" xmlns="http://www.w3.org/2000/svg" xmlns:xlink="http://www.w3.org/1999/xlink" x="0px" y="0px"
	 viewBox="0 0 332.4 448.6" style="enable-background:new 0 0 332.4 448.6;" xml:space="preserve">
<path d="M215.1,246.5l44.5-58.8c15.5-20.5,23.7-44.9,23.7-70.6C283.3,52.5,230.8,0,166.2,0S49.1,52.5,49.1,117.1
	c0,25.7,8.2,50.1,23.7,70.6l44.5,58.8L0,401.6l62.2,47.1l104-137.5l104,137.5l62.2-47.1L215.1,246.5z M197.4,140.6l-31.2,41.3
	L135,140.6c-5.2-6.8-7.9-15-7.9-23.5c0-21.6,17.5-39.1,39.1-39.1s39.1,17.5,39.1,39.1C205.3,125.7,202.6,133.8,197.4,140.6z"/>
</svg>
