<?xml version="1.0" encoding="utf-8"?>
<!-- Generator: Adobe Illustrator 22.1.0, SVG Export Plug-In . SVG Version: 6.00 Build 0)  -->
<svg version="1.1" id="Layer_1" xmlns="http://www.w3.org/2000/svg" xmlns:xlink="http://www.w3.org/1999/xlink" x="0px" y="0px"
	 viewBox="0 0 284.2 441.7" style="enable-background:new 0 0 284.2 441.7;" xml:space="preserve">
<style type="text/css">
	.st0{fill:#30C400;}
</style>
<g>
	<g>
		<path class="st0" d="M205.7,227.9l32.6-48.2c2.3-3.5,4.6-7.5,7.3-12.5c4.6-8.9,8-18.2,10.1-27.7c2.1-9.7,3-19.5,2.5-29.1l-0.2-3.7
			l-1.2-9.6c-0.8-4.9-1.9-9.3-2.9-13.2c-2.3-8.2-5.6-16.1-9.6-23.6c-3.8-7-8.3-13.6-13.4-19.6c-8.9-10.6-19.7-19.5-31.9-26.3
			c-5-2.8-10.3-5.2-15.8-7.2c-5-1.8-9.7-3.2-13.9-4.1c-4.4-1-8.3-1.6-11.7-2c-1.1-0.1-2.2-0.2-3.3-0.3l-1.2-0.1
			c-0.2,0-0.5,0-0.7-0.1V0.2H146L139.2,0v0.3l-4.7,0.1c-1.1,0-2.3,0.1-3.4,0.2l-1,0.1c-1.1,0.1-2.3,0.2-3.7,0.4
			c-1.8,0.2-3.8,0.5-5.8,0.9c-1.8,0.3-3.7,0.7-5.5,1.1c-4.4,1-9.1,2.4-14.1,4.2c-5.5,2-10.8,4.4-15.7,7.2
			c-12.3,6.8-23,15.7-31.9,26.3c-5.1,6-9.6,12.6-13.4,19.7c-4,7.5-7.2,15.4-9.6,23.7c-1,3.7-2.1,8.2-2.8,12.9l-0.3,2
			c-0.1,0.4-0.1,0.8-0.1,1.1l-1,10.5c-0.5,9.5,0.4,19.2,2.6,29c2.2,9.4,5.6,18.7,10.1,27.7c2.5,4.8,4.9,8.8,7.2,12.4l36.9,56.7
			l39.9-53.4l-27.3-37c-1.7-2.3-3.1-4.7-4.4-6.8c-2.5-4.5-4.5-9.1-5.7-13.5c-1.2-4.6-1.8-9.2-1.9-13.1l0.5-7.7
			c0.2-2.2,0.7-4.5,1.1-6.6c1-4.4,2.5-8.6,4.4-12.5c1.8-3.7,4-7.3,6.6-10.6c4.4-5.7,9.8-10.6,16.1-14.6c2.6-1.6,5.3-3,8.1-4.1
			c1.8-0.8,3.4-1.4,5-1.9c0.8-0.3,1.6-0.5,2.5-0.7c2.2-0.6,4.3-1,5.9-1.3l8.6-0.8L147,52l3.3,0.4c1.9,0.4,4,0.7,6.5,1.4
			c2.1,0.5,4.5,1.4,7.3,2.5c2.8,1.2,5.5,2.6,8.1,4.2c6.4,3.9,11.8,8.8,16.1,14.6c2.5,3.3,4.7,6.8,6.5,10.5c1.9,4,3.4,8.2,4.4,12.3
			c0.5,2.2,1,4.5,1.2,6.6l0.5,7.4c0,4.4-0.6,8.9-1.8,13.4c-1.3,4.6-3.2,9.1-5.7,13.5c-1.5,2.6-2.9,4.8-4.5,6.9l-11,14.7l0.2,0.1
			l-178,238L60,441.4l134.3-196.8L205.7,227.9z"/>
		<polygon class="st0" points="161.6,347.5 223.9,441.7 284.2,398.7 202.1,288.2 		"/>
		<polygon class="st0" points="177.9,160.6 0,398.6 0.1,398.7 178,160.7 		"/>
		<polygon class="st0" points="194.3,244.6 60,441.4 60.3,441.7 		"/>
	</g>
</g>
</svg>
