<?xml version="1.0" encoding="utf-8"?>
<!-- Generator: Adobe Illustrator 22.1.0, SVG Export Plug-In . SVG Version: 6.00 Build 0)  -->
<svg version="1.1" id="Layer_1" xmlns="http://www.w3.org/2000/svg" xmlns:xlink="http://www.w3.org/1999/xlink" x="0px" y="0px"
	 viewBox="0 0 440.6 441.7" style="enable-background:new 0 0 440.6 441.7;" xml:space="preserve">
<style type="text/css">
	.st0{fill:#508FCC;}
</style>
<g>
	<g>
		<path class="st0" d="M197,244.1l-48.3-94.7c-2.6-5.2-8-8.5-13.8-8.5h-70c-5.8,0-11.1,3.2-13.7,8.3L1.8,244c-4,7.6-1,17,6.6,20.9
			c7.6,4,17,1,20.9-6.6l45-86.4h51.1l44,86.2c2.7,5.4,8.2,8.5,13.8,8.5c2.4,0,4.8-0.5,7-1.7C197.8,261.1,200.9,251.8,197,244.1z"/>
		<circle class="st0" cx="101.7" cy="55.8" r="55.8"/>
		<path class="st0" d="M130.2,267H67.8c-8.5,0-15.4,6.9-15.5,15.4l-1,143.7c-0.1,8.6,6.8,15.5,15.4,15.6h0.1
			c8.5,0,15.4-6.9,15.5-15.4L83.2,298h31.7l1.5,128.4c0.1,8.5,7,15.3,15.5,15.3c0.1,0,0.1,0,0.2,0c8.6-0.1,15.4-7.1,15.3-15.7
			l-1.6-143.7C145.6,273.8,138.7,267,130.2,267z"/>
	</g>
	<g>
		<circle class="st0" cx="326.7" cy="56" r="55.8"/>
		<path class="st0" d="M437.8,242.3l-64.7-93.2c-2.9-4.2-7.7-6.7-12.7-6.7l0,0h-66.5c-5,0-9.8,2.5-12.7,6.6l-65.5,93.1
			c-4.9,7-3.2,16.7,3.8,21.6s16.7,3.2,21.6-3.8l60.8-86.6h50.4l60,86.5c3,4.3,7.8,6.7,12.7,6.7c3,0,6.1-0.9,8.8-2.8
			C440.9,259,442.7,249.4,437.8,242.3z"/>
		<path class="st0" d="M364.5,244c-2.9-4.2-7.7-6.7-12.7-6.7h-49c-5.1,0-9.9,2.5-12.8,6.8l-43,63.3c-3.2,4.7-3.6,10.9-0.9,16
			s8,8.2,13.7,8.2h19.6l-0.7,94.4c-0.1,8.6,6.8,15.5,15.4,15.6h0.1c8.5,0,15.4-6.9,15.5-15.4l0.7-94.6h32.3l1.1,94.7
			c0.1,8.5,7,15.3,15.5,15.3c0.1,0,0.1,0,0.2,0c8.6-0.1,15.4-7.1,15.3-15.7l-1.1-94.3h22.1c5.8,0,11.1-3.2,13.7-8.3s2.3-11.3-1-16
			L364.5,244z"/>
	</g>
</g>
</svg>
