<?xml version="1.0" encoding="utf-8"?>
<!-- Generator: Adobe Illustrator 22.1.0, SVG Export Plug-In . SVG Version: 6.00 Build 0)  -->
<svg version="1.1" id="Layer_1" xmlns="http://www.w3.org/2000/svg" xmlns:xlink="http://www.w3.org/1999/xlink" x="0px" y="0px"
	 viewBox="0 0 513.5 465.2" style="enable-background:new 0 0 513.5 465.2;" xml:space="preserve">
<style type="text/css">
	.st0{fill:#508FCC;}
</style>
<g>
	<g>
		<path class="st0" d="M217,267.6l-48.3-94.7c-2.6-5.2-8-8.5-13.8-8.5h-90c-5.8,0-11.1,3.2-13.7,8.3L1.8,267.5c-4,7.6-1,17,6.6,20.9
			c7.6,4,17,1,20.9-6.6l45-86.4h71.1l44,86.2c2.7,5.4,8.2,8.5,13.8,8.5c2.4,0,4.8-0.5,7-1.7C217.8,284.6,220.9,275.3,217,267.6z"/>
		<g>
			<path class="st0" d="M114.3,142.6c-39.3,0-71.3-32-71.3-71.3S75,0,114.3,0s71.3,32,71.3,71.3S153.6,142.6,114.3,142.6z M114.3,31
				C92.1,31,74,49.1,74,71.3c0,22.2,18.1,40.3,40.3,40.3c22.2,0,40.3-18.1,40.3-40.3C154.6,49.1,136.5,31,114.3,31z"/>
		</g>
		<path class="st0" d="M150.2,291.5H67.8c-8.5,0-15.4,6.9-15.5,15.4l-1,142.7c-0.1,8.6,6.8,15.5,15.4,15.6h0.1
			c8.5,0,15.4-6.9,15.5-15.4l0.9-127.3h51.7l1.5,127.4c0.1,8.5,7,15.3,15.5,15.3c0.1,0,0.1,0,0.2,0c8.6-0.1,15.4-7.1,15.3-15.7
			l-1.6-142.7C165.6,298.3,158.7,291.5,150.2,291.5z"/>
	</g>
	<g>
		<g>
			<path class="st0" d="M394.7,142.8c-39.3,0-71.3-32-71.3-71.3s32-71.3,71.3-71.3s71.3,32,71.3,71.3S434,142.8,394.7,142.8z
				 M394.7,31.2c-22.2,0-40.3,18.1-40.3,40.3s18.1,40.3,40.3,40.3S435,93.7,435,71.5S416.9,31.2,394.7,31.2z"/>
		</g>
		<path class="st0" d="M510.8,265.8l-64.7-93.2c-2.9-4.2-7.7-6.7-12.7-6.7l0,0h-76.5c-5,0-9.8,2.5-12.7,6.6l-65.5,93.1
			c-4.9,7-3.2,16.7,3.8,21.6s16.7,3.2,21.6-3.8l60.8-86.6h60.4l60,86.5c3,4.3,7.8,6.7,12.7,6.7c3,0,6.1-0.9,8.8-2.8
			C513.9,282.5,515.7,272.9,510.8,265.8z"/>
		<path class="st0" d="M437.5,267.5c-2.9-4.2-7.7-6.7-12.7-6.7h-59c-5.1,0-9.9,2.5-12.8,6.8l-43,63.3c-3.2,4.7-3.6,10.9-0.9,16
			s8,8.2,13.7,8.2h19.6l-0.7,94.4c-0.1,8.6,6.8,15.5,15.4,15.6h0.1c8.5,0,15.4-6.9,15.5-15.4l0.7-94.6h42.3l1.1,94.7
			c0.1,8.5,7,15.3,15.5,15.3c0.1,0,0.1,0,0.2,0c8.6-0.1,15.4-7.1,15.3-15.7l-1.1-94.3h22.1c5.8,0,11.1-3.2,13.7-8.3s2.3-11.3-1-16
			L437.5,267.5z"/>
	</g>
</g>
</svg>
