<?xml version="1.0" encoding="utf-8"?>
<!-- Generator: Adobe Illustrator 22.1.0, SVG Export Plug-In . SVG Version: 6.00 Build 0)  -->
<svg version="1.1" id="Layer_1" xmlns="http://www.w3.org/2000/svg" xmlns:xlink="http://www.w3.org/1999/xlink" x="0px" y="0px"
	 viewBox="0 0 440.1 440.1" style="enable-background:new 0 0 440.1 440.1;" xml:space="preserve">
<style type="text/css">
	.st0{fill:none;}
</style>
<g>
	<path class="st0" d="M117.2,38.7h-10.3c-2.2,0-4,0.6-5.9,1.8L64.7,67.4c-2.2,1.8-2.6,4-1,6.7l6.7,9.1c1.8,2.6,3.8,2.8,6.5,1
		l22-16.2v92.1c0,3,1.6,4.6,4.6,4.6h13.7c3,0,4.6-1.6,4.6-4.6V43.4C121.8,40.3,120.2,38.7,117.2,38.7z"/>
	<path class="st0" d="M305.6,164.8h74.5c3,0,4.6-1.6,4.6-4.6v-10.9c0-3-1.6-4.6-4.6-4.6h-48.8v-0.4l36.2-33.5
		c12.7-11.9,18-22.4,18-36.4c0-23.4-16.4-38-42.4-38c-17.6,0-31.3,7.1-41,21c-1.6,2.4-1.2,4.6,1,6.5l8.7,7.3c2.4,1.8,4.6,1.6,6.5-1
		c6.7-9.1,14.5-13.5,23.8-13.5c12.7,0,20.4,6.7,20.4,17.8c0,7.5-3,13.1-11.9,22l-47.1,46.7c-1.6,1.6-2.4,3.6-2.4,5.9v11.3
		C301,163.1,302.6,164.8,305.6,164.8z"/>
	<path class="st0" d="M107.3,383.6c-10.9,0-20-3.8-27.5-11.7c-2.2-2.4-4.4-2.4-6.5-0.2l-7.9,8.7c-2,2.2-2,4.4,0,6.5
		c10.1,11.3,24.4,17,43,17c28.3,0,45.2-13.9,45.2-37.4c0-14.7-6.5-24.8-19.4-30.1V336c10.7-5,16.2-14.1,16.2-27.3
		c0-22.4-16.2-35.8-43-35.8c-16.4,0-29.9,5.7-40.6,16.8c-2,2.2-2,4.4,0,6.7l7.5,8.5c2,2.2,4.2,2.2,6.5-0.2
		c7.5-7.7,16-11.5,25.5-11.5c13.5,0,21.2,6.1,21.2,17.2c0,11.5-7.5,16.6-25.9,16.6H97c-3,0-4.6,1.6-4.6,4.6v10.1
		c0,3,1.6,4.6,4.6,4.6h5.7c19.6,0,28.1,5.7,28.1,18.6C130.7,376.7,122,383.6,107.3,383.6z"/>
	<path class="st0" d="M377.5,354.3H367V280c0-3-1.6-4.6-4.6-4.6H347c-2.2,0-4,1-5.5,2.8l-54.3,72.5c-1.4,1.8-2,3.6-2,5.9v13.3
		c0,3,1.6,4.6,4.6,4.6H344v22.2c0,3,1.6,4.6,4.6,4.6h13.7c3,0,4.6-1.6,4.6-4.6v-22.2h10.5c3,0,4.6-1.6,4.6-4.6V359
		C382.2,355.9,380.6,354.3,377.5,354.3z M344,354.3h-34.1l33.7-46.3h0.4V354.3z"/>
	<path d="M0,440.1h204.7V235.5H0V440.1z M102.6,346.2H97c-3,0-4.6-1.6-4.6-4.6v-10.1c0-3,1.6-4.6,4.6-4.6h4.6
		c18.4,0,25.9-5,25.9-16.6c0-11.1-7.7-17.2-21.2-17.2c-9.5,0-18,3.8-25.5,11.5c-2.2,2.4-4.4,2.4-6.5,0.2l-7.5-8.5
		c-2-2.2-2-4.4,0-6.7c10.7-11.1,24.2-16.8,40.6-16.8c26.9,0,43,13.3,43,35.8c0,13.1-5.5,22.2-16.2,27.3v0.4
		c12.9,5.3,19.4,15.4,19.4,30.1c0,23.4-17,37.4-45.2,37.4c-18.6,0-32.9-5.7-43-17c-2-2-2-4.2,0-6.5l7.9-8.7c2-2.2,4.2-2.2,6.5,0.2
		c7.5,7.9,16.6,11.7,27.5,11.7c14.7,0,23.4-6.9,23.4-18.8C130.7,351.9,122.2,346.2,102.6,346.2z"/>
	<path d="M235.5,204.5h204.7V0H235.5V204.5z M301,148.8c0-2.2,0.8-4.2,2.4-5.9l47.1-46.6c8.9-8.9,11.9-14.5,11.9-22
		c0-11.1-7.7-17.8-20.4-17.8c-9.3,0-17.2,4.4-23.8,13.5c-1.8,2.6-4,2.8-6.5,1l-8.7-7.3c-2.2-1.8-2.6-4-1-6.5c9.7-13.9,23.4-21,41-21
		c26.1,0,42.4,14.5,42.4,38c0,13.9-5.3,24.4-18,36.4l-36.2,33.5v0.4h48.9c3,0,4.6,1.6,4.6,4.6V160c0,3-1.6,4.6-4.6,4.6h-74.5
		c-3,0-4.6-1.6-4.6-4.6V148.8z"/>
	<polygon points="309.9,354.3 344,354.3 344,308 343.6,308 	"/>
	<path d="M235.7,235.5v204.7h204.4L440,235.5H235.7z M382.2,369.9c0,3-1.6,4.6-4.6,4.6H367v22.2c0,3-1.6,4.6-4.6,4.6h-13.7
		c-3,0-4.6-1.6-4.6-4.6v-22.2H290c-3,0-4.6-1.6-4.6-4.6v-13.3c0-2.2,0.6-4,2-5.9l54.3-72.5c1.4-1.8,3.2-2.8,5.5-2.8h15.4
		c3,0,4.6,1.6,4.6,4.6v74.3h10.5c3,0,4.6,1.6,4.6,4.6L382.2,369.9L382.2,369.9z"/>
	<path d="M204.6,0H0.1v204.5h204.3L204.6,0z M121.8,160.1c0,3-1.6,4.6-4.6,4.6h-13.8c-3,0-4.6-1.6-4.6-4.6V68l-22,16.2
		c-2.6,1.8-4.6,1.6-6.5-1l-6.7-9.1c-1.6-2.6-1.2-4.8,1-6.7L101,40.5c1.8-1.2,3.6-1.8,5.9-1.8h10.3c3,0,4.6,1.6,4.6,4.6L121.8,160.1
		L121.8,160.1z"/>
</g>
</svg>
