<?xml version="1.0" encoding="utf-8"?>
<!-- Generator: Adobe Illustrator 22.1.0, SVG Export Plug-In . SVG Version: 6.00 Build 0)  -->
<svg version="1.1" id="Layer_1" xmlns="http://www.w3.org/2000/svg" xmlns:xlink="http://www.w3.org/1999/xlink" x="0px" y="0px"
	 viewBox="0 0 440.1 440.1" style="enable-background:new 0 0 440.1 440.1;" xml:space="preserve">
<g>
	<path d="M220,30c50.8,0,98.5,19.8,134.4,55.6S410,169.3,410,220s-19.8,98.5-55.6,134.4S270.8,410,220,410s-98.5-19.8-134.4-55.6
		S30,270.8,30,220c0-21.9,3.7-43.4,11-63.9c7-19.8,17.3-38.1,30.4-54.6C107.8,56.1,161.9,30,220,30 M220,0
		C150.4,0,88.3,32.4,48,82.9C18,120.5,0,168.2,0,220c0,121.5,98.5,220,220,220s220-98.5,220-220S341.6,0,220,0L220,0z"/>
</g>
<g>
	<g>
		<path d="M208.9,202.7c9.8,26.5,1.7,54.2-25.6,64.9c-20.1,8.1-50.8,2.6-58.9-20.5c-8.1-23.5,3.4-50.4,25.6-60.6
			c19.6-9,47.4-7.7,57.6,14.1C208.4,200.6,208.9,202.3,208.9,202.7z M200.3,201.8c-9-15.8-34.6-13.7-49.1-5.5
			c-14.5,8.1-26.5,34.6-15.8,50.8c11.1,16.6,37.1,20.1,52.5,9.4C206.3,244.1,210.1,219.8,200.3,201.8z"/>
	</g>
	<g>
		<path d="M90.2,151c-5.1,11.1-4.7,37.6,17.9,29.9c17.1-5.5,30.3-24.3,39.7-38.8c5.1-9.8,4.7-22.6-8.5-29c-10.2-4.7-19.6,0-26,6.8
			C105.6,127.6,94.9,140.8,90.2,151z M160.2,120.7c3,11.1,0.4,20.5-4.3,30.3c0,0.4-0.4,0.9-0.9,1.3c-0.4,0.4-0.4,0.9-0.9,1.3
			c-12.8,19.6-37.6,49.1-64.5,37.1c-21.3-9.4-14.9-34.6-6-50.8c10.2-18.4,26.9-41,49.9-41C145.3,99,157.2,110.5,160.2,120.7z"/>
	</g>
	<g>
		<path d="M143.6,298.8c-9.8-9.8-18.8-18.8-31.6-25.2c-9.4-4.7-28.6-4.7-26.5,10.7c2.6,17.1,22.2,40.1,33.7,52.1
			c9.4,9.8,37.6,27.3,38.4-6.8C158.5,318.8,150.4,306.9,143.6,298.8z M153.4,294.9c10.2,13.2,20.5,38,9.8,53.4
			c-15.4,22.6-45.3,4.3-58.1-11.5c-15.4-19.2-41.4-45.7-23.1-71.3c16.2-22.2,55.9,14.1,69.2,26.9
			C150.8,292.4,152.9,294.5,153.4,294.9z"/>
	</g>
	<g>
		<path d="M178.6,289.8c19.6-30.3,70.4-15.8,93.9,8.5c17.1,17.9,16.2,55.9-9.4,67C220,384.1,150.8,327.8,178.6,289.8z M267.8,306.9
			c-13.7-18.8-61-38.8-77.7-13.2c-11.5,15.4-7.7,32,7.3,44.8c11.5,9.8,39.3,26,56.4,22.6C273.3,357.2,281.4,326.1,267.8,306.9z"/>
	</g>
	<g>
		<path d="M230.2,230c5.5,37.6,58.1,46.5,87.1,41c12.4-2.6,29.5-7.7,39.7-16.2c15.8-12.4,14.9-44,0.4-57.2
			c-20.5-18.8-57.2-25.6-82.8-15.8C258,189,226.8,207,230.2,230z M368.1,260.3c-13.7,14.5-35.4,17.9-54.2,20.9
			c-33.7,5.1-86.7-5.5-93.1-47c-4.7-33.7,30.7-56.8,59.3-64.5c31.6-8.5,80.3-2.1,94.8,32.9C381.8,219.8,381.8,246.2,368.1,260.3z"/>
	</g>
	<g>
		<path d="M301.1,110.1c5.1-15.4,0.4-35-15.4-40.1c-16.2-5.5-32.4,2.1-47,11.1c-18.4,11.5-35.4,26-44.4,47.4
			c-3.4,8.1-4.3,18.8-3,28.2c2.1,15.8,24.8,14.9,34.2,10.7C252.4,155.7,296,126.3,301.1,110.1z M303.6,125.9
			c-14.5,15.8-33.7,29.5-52.1,40.1c-16.2,9.8-35.4,17.5-54.2,10.7c-27.3-10.2-20.5-46.5-8.5-66.6c17.9-29.9,54.6-51.2,88.8-51.7
			c32-0.4,45.7,40.6,28.2,64.5c0,0,0,0,0,0.4C305.8,123.7,304.1,125.4,303.6,125.9z"/>
	</g>
	<g>
		<path d="M223.4,120.3c6.4-5.5,18.4-13.7,29.5-13.2c5.5,0,12.8,8.5,7.3,14.9l-0.9,1.3c-3.8,4.7-9,8.1-14.1,11.5
			c-5.5,4.3-12.4,9.4-20.1,9.8C209.3,145.1,216.6,126.3,223.4,120.3z"/>
	</g>
	<g>
		<path d="M142.3,165.1c0.4-0.4,0.4-1.3,0.9-1.7C142.7,164.3,142.7,164.7,142.3,165.1z"/>
	</g>
	<g>
		<path d="M141.4,166.8"/>
	</g>
	<g>
		<path d="M359.1,225.8c0,3-0.4,6-1.3,9l-8.1-2.1c0.9-2.6,1.3-5.1,1.3-7.3L359.1,225.8z M358.7,221.5l-8.1,0.9
			c0-2.6-0.9-4.7-1.7-6.4l7.3-3.4C357.9,214.7,358.7,218.1,358.7,221.5z M355.7,239.4c-1.3,3-3.4,5.5-6,7.7l-5.1-6.4
			c1.7-1.3,3-3,3.8-5.1L355.7,239.4z M354,207.8l-6.8,4.7c-1.3-1.7-3-3.4-5.1-5.1l5.1-6.4C349.7,203.1,351.9,205.3,354,207.8z
			 M345.5,250.1c-2.6,1.3-5.1,2.6-8.5,3.4l-2.1-8.1c2.6-0.9,5.1-1.7,6.8-2.6L345.5,250.1z M343.3,198.4l-4.3,6.8
			c-2.1-1.3-4.3-2.6-6.8-3.4l3-7.7C338.2,195.4,341.2,197.2,343.3,198.4z M333.1,254.8c-2.6,0.4-5.5,1.3-8.1,1.7l-1.7-8.1
			c2.6-0.4,5.5-1.3,8.1-1.7L333.1,254.8z M331.4,192.9l-2.6,7.7c-2.6-0.9-4.7-1.3-7.7-2.1l1.7-8.1
			C325.8,191.2,328.8,192,331.4,192.9z M320.7,257.3c-2.6,0.4-5.5,0.9-8.5,1.3l-0.9-8.1c2.6-0.4,5.5-0.9,8.1-1.3L320.7,257.3z
			 M318.6,189.9l-1.3,8.5c-2.6-0.4-5.1-0.4-7.7-0.9l0.4-8.1C313,189.5,315.6,189.5,318.6,189.9z M307.9,259.1c-3,0.4-6,0.4-8.5,0.4
			v-8.1c2.6,0,5.1,0,8.1-0.4L307.9,259.1z M305.8,197.6c-2.6,0-5.1,0-7.7,0.4l-1.3-8.1c3-0.4,5.5-0.4,8.5-0.4L305.8,197.6z
			 M295.1,251.4v8.1c-3,0-6-0.4-8.5-0.4l0.9-8.1C290,250.9,292.5,250.9,295.1,251.4z M293.8,198.4c-2.6,0.4-5.1,0.9-7.3,1.7
			l-1.3-3.8l-1.3-3.8l1.3,3.8l-1.3-3.8c2.6-0.9,5.5-1.7,8.5-2.1L293.8,198.4z M283.6,250.1l-1.3,8.1c-3-0.4-6-1.3-8.5-2.1l2.6-7.7
			C278.5,248.8,281,249.7,283.6,250.1z M282.7,201.4c-2.6,0.9-5.1,1.7-7.3,3l-3.4-7.7c2.6-1.3,5.1-2.1,8.1-3L282.7,201.4z
			 M272.5,246.7l-3,7.7c-3-1.3-5.5-2.1-8.1-3.4l3.8-7.3C267.4,244.5,269.9,245.8,272.5,246.7z M271.6,206.1
			c-2.6,1.3-4.7,2.6-6.8,3.8l-4.3-6.8c2.1-1.3,4.7-3,7.7-4.3L271.6,206.1z M262.2,241.6l-4.3,6.8c-3-1.7-5.1-3.8-7.3-6l6-5.5
			C258,238.6,259.7,240.3,262.2,241.6z M261.4,212.1c-2.1,1.7-4.3,3.4-5.5,4.7l-6-5.5c1.7-2.1,4.3-3.8,6.8-6L261.4,212.1z
			 M254.5,234.7l-6.8,4.7c-2.1-3-3-6-3.4-9.4l8.1-0.9C252.4,230.9,253.3,232.6,254.5,234.7z M253.7,219.4c-1.3,1.7-1.7,3.8-1.7,5.5
			l-8.1-0.4c0-3.4,1.3-6.8,3.4-9.8L253.7,219.4z"/>
	</g>
	<g>
		<path d="M163.6,219.4c3.4-1.3,11.5-2.1,14.1,4.3c3.4,8.5,0.9,15.8-7.7,18.8c-6,2.1-15.4-0.9-15.4-8.1
			C154.2,227.5,155.9,221.9,163.6,219.4z"/>
	</g>
	<g>
		<path d="M212.3,307.3c4.7-5.1,13.7-4.3,23.5,3.8c4.3,3.4,12.4,9.4,8.5,18.4c-3.8,9-15.8,8.5-26.5,0
			C210.1,323.5,207.6,312.8,212.3,307.3z"/>
	</g>
	<g>
		<path d="M285.3,207.4c12-3.8,31.6-1.7,38,9.4c2.1,3.8,2.1,9,0.9,13.7c-2.1,7.7-9,9.4-17.1,11.1c-9,2.1-19.6,3-28.6-0.4
			c-5.1-2.1-14.1-6-14.5-13.7C261.4,216.4,279.3,209.5,285.3,207.4z"/>
	</g>
	<g>
		<path d="M285.7,107.1c0,0.9,0,1.3,0,2.1l-8.1-0.9c0-2.1,0-4.3-0.9-6.8l8.1-2.1C285.3,102,285.7,104.5,285.7,107.1z M284.4,113.9
			c-0.9,2.6-2.1,5.1-3.8,7.3l-0.9,1.3l-7.3-4.3l1.3-1.7c1.3-1.3,1.7-3,2.6-4.7L284.4,113.9z M282.7,94.7l-7.3,3.8
			c-0.9-2.1-2.6-4.3-3.8-5.5l6-6C279.3,89.1,281.4,91.7,282.7,94.7z M277.2,125.9c-1.7,2.1-3.8,3.8-6.4,6l-5.1-6.4
			c2.1-1.7,3.8-3.4,5.5-5.1L277.2,125.9z M272.9,84l-3.8,7.3c-0.4-0.4-0.9-0.4-1.7-0.4c-1.3-0.4-2.6-0.4-4.3-0.4l-0.4-8.1h0.4
			c2.1,0,3.8,0,5.5,0.4C270.3,82.7,271.6,83.2,272.9,84z M267.4,134.4c-2.1,1.7-4.7,3.4-6.8,5.1l-4.7-6.8c2.1-1.7,4.3-3,6.4-4.7
			L267.4,134.4z M259.7,90.4c-2.1,0.4-4.7,0.9-7.3,1.7l-3-7.7c3-1.3,6-1.7,9-2.1L259.7,90.4z M257.1,142.1c-0.9,0.9-1.7,1.3-2.6,2.1
			h-0.4c-1.3,0.9-2.1,1.7-3.4,2.6l-4.7-6.8c1.3-0.9,2.1-1.7,3.4-2.6l0.4-0.4c0.9-0.9,2.1-1.3,3-2.1L257.1,142.1z M249,93.8
			c-2.1,0.9-4.7,2.1-6.8,3.8l-4.3-6.8c2.6-1.7,5.1-3,7.7-4.3L249,93.8z M247.3,149.3c-2.6,1.7-5.1,3.4-7.3,4.7l-3.8-7.3
			c2.1-1.3,4.3-2.6,6.8-4.3L247.3,149.3z M238.8,99.4c-2.1,1.3-4.3,3-6.4,4.7l-5.1-6.4c2.6-1.7,4.7-3.4,6.8-5.1L238.8,99.4z
			 M235.8,155.7c-3,1.3-6,2.6-8.5,3l-1.7-8.1c2.1-0.4,4.3-1.3,6.8-2.6L235.8,155.7z M229.4,106.7c-2.1,1.7-4.3,3.8-6,5.1
			c-0.4,0-0.4,0.4-0.9,0.9l-6-6c0.4-0.4,0.9-0.4,0.9-0.9c1.7-1.7,3.8-3.4,6.4-5.5L229.4,106.7z M222.5,159.6c-0.9,0-1.3,0-2.1,0
			s-1.3,0-2.1,0c-1.7,0-3.4-0.4-5.1-0.9l2.1-8.1c1.3,0.4,2.1,0.4,3.8,0.4c0.4,0,0.9,0,1.7,0c0.4,0,0.9,0,1.7,0L222.5,159.6z
			 M220,115.6c-1.7,1.7-3,3.8-4.3,6.4l-6.8-4.3c1.7-2.6,3.4-5.1,5.1-7.3L220,115.6z M213.6,125c-1.3,2.6-2.1,4.7-3,6.8l-7.7-2.6
			c0.9-2.6,2.1-5.5,3.4-8.1L213.6,125z M212.3,149.8L208,157c-3.4-2.1-5.5-4.7-6.8-8.5l7.7-2.6C209.7,147.2,211,148.5,212.3,149.8z
			 M209.3,135.7c-0.9,2.6-0.9,4.7-0.9,6.8l-8.1,0.4c0-3,0-6,0.9-9.4L209.3,135.7z"/>
	</g>
	<g>
		<path d="M195.2,227.9h-8.1c0-2.1-0.4-4.7-0.9-7.3l8.1-2.1C194.8,221.9,195.2,224.9,195.2,227.9z M194.8,232.6
			c-0.4,3.4-1.7,6.4-3.4,9l-7.3-4.3c1.3-1.7,1.7-3.8,2.1-6.4L194.8,232.6z M192.6,214.2l-7.7,3l-0.4-1.3c-0.9-1.7-1.7-3-3-4.3l5.5-6
			c2.1,2.1,3.8,4.3,5.1,7.3C192.2,213.4,192.6,213.8,192.6,214.2z M188.8,245.8c-2.1,2.1-4.3,4.3-7.3,6l-4.3-7.3
			c2.1-1.3,3.8-2.6,5.1-4.3L188.8,245.8z M182.8,203.1l-3.4,7.3c-1.7-0.9-3.8-1.3-6.4-1.3l0.4-8.1
			C176.9,201,179.8,201.4,182.8,203.1z M177.3,253.9c-0.9,0.4-1.7,0.9-3,1.3c-2.1,0.9-4.3,1.3-6.4,1.3l-0.9-8.1c1.7,0,3-0.4,4.3-0.9
			c0.9-0.4,1.7-0.4,2.1-0.9L177.3,253.9z M169.2,209.1c-2.6,0-5.1,0.9-7.3,1.3c-1.7,0.4-3,1.3-4.3,1.7l-3.8-7.3
			c1.7-0.9,3.4-1.7,5.1-2.1c1.7-0.4,4.7-1.3,9-1.7L169.2,209.1z M164,248.4l-0.4,8.1c-3,0-6.4-0.9-9.4-1.7l2.6-7.7
			C159.3,248,161.5,248.4,164,248.4z M155.1,213.8c-1.7,1.3-3.4,3-4.7,4.7l-6.8-4.3c1.7-2.6,3.8-5.1,6.8-7.3L155.1,213.8z
			 M153.8,245.8l-3.8,7.3c-3-1.7-5.5-3.8-7.7-6.4l6.8-4.7C150.4,243.3,151.7,244.5,153.8,245.8z M148.7,221.5
			c-0.9,2.1-1.3,4.3-1.7,6.8l-8.1-0.9c0.4-3.4,1.3-6.4,2.1-9L148.7,221.5z M147.8,239l-7.7,3c-0.9-2.1-1.3-4.3-1.3-6.8
			c0-1.3,0-2.1,0-3l8.1,0.4c0,0.9,0,1.7,0,2.1C147,236.4,147.4,237.7,147.8,239z"/>
	</g>
	<g>
		<path d="M267.8,332.5c0,1.3,0,3-0.4,4.3l-8.1-2.1c0.4-1.7,0.4-3.4-0.4-5.5l7.7-2.6C267.8,328.6,267.8,330.8,267.8,332.5z
			 M265.2,321.8l-7.3,3.8c-0.9-2.1-2.6-4.3-4.3-6.4l6.4-5.1C262.2,317.1,263.9,319.7,265.2,321.8z M264.8,341.9
			c-2.1,2.6-4.3,4.7-7.3,6.4l-4.3-6.8c1.7-1.3,3.4-2.6,5.1-4.7L264.8,341.9z M257.5,311.1l-6.4,5.5c-1.7-1.7-3.4-3.8-5.5-5.5l5.5-6
			C253.3,306.9,255.4,309,257.5,311.1z M253.3,350.4c-3,1.3-6,1.7-9.4,2.1l-0.4-8.1c2.6,0,4.7-0.4,6.8-1.3L253.3,350.4z
			 M248.1,301.7l-5.1,6.4c-2.1-1.7-4.3-3.4-6.4-4.7l4.3-6.8C243.4,298.3,245.6,300,248.1,301.7z M240,344l-0.9,8.1
			c-3-0.4-6-0.9-9-2.1l2.6-7.7C235.3,343.6,237.5,344,240,344z M237,294.5l-3.8,7.3c-2.1-1.3-4.7-2.1-6.8-3l2.6-7.7
			C231.5,291.5,234.5,292.8,237,294.5z M229.4,341l-3.4,7.7c-2.6-1.3-5.1-2.6-7.7-4.3l4.3-6.8C224.7,338.9,227.2,340.2,229.4,341z
			 M224.2,289.8l-1.7,8.1c-1.7-0.4-3.4-0.4-5.1-0.4c-0.9,0-1.3,0-2.1,0l-0.4-8.1c0.9,0,1.7,0,2.6,0
			C220,288.9,222.1,289.4,224.2,289.8z M219.5,335.5l-4.7,6.8c-1.7-1.3-3-2.1-4.7-3.8c-0.9-0.4-1.3-1.3-2.1-1.7l5.5-6
			c0.4,0.4,1.3,0.9,1.7,1.7C216.6,333.3,217.8,334.6,219.5,335.5z M211.9,297.9c-2.1,0.4-4.7,1.3-7.3,2.1c-0.9,0.4-1.7,0.9-2.1,1.3
			l-5.1-6.4c1.3-0.9,3-1.7,4.7-2.6c3-1.3,6-1.7,8.5-2.6L211.9,297.9z M210.6,327.8l-6,5.5c-2.1-2.1-3.8-4.7-5.5-6.8l6.8-4.7
			C207.2,323.9,208.9,326.1,210.6,327.8z M204.2,318.8l-7.3,3.8c-1.7-3-2.6-5.5-3.4-8.5l8.1-2.1
			C201.6,314.1,202.9,316.3,204.2,318.8z M201.2,303c-0.9,1.3-0.9,3.4-0.9,5.5l-8.1,0.9c-0.4-3.8,0-7.7,1.7-10.7L201.2,303z"/>
	</g>
</g>
</svg>
