<?xml version="1.0" encoding="utf-8"?>
<!-- Generator: Adobe Illustrator 22.1.0, SVG Export Plug-In . SVG Version: 6.00 Build 0)  -->
<svg version="1.1" id="Layer_1" xmlns="http://www.w3.org/2000/svg" xmlns:xlink="http://www.w3.org/1999/xlink" x="0px" y="0px"
	 viewBox="0 0 440.1 440.1" style="enable-background:new 0 0 440.1 440.1;" xml:space="preserve">
<style type="text/css">
	.st0{fill:#508FCC;}
</style>
<g>
	<path class="st0" d="M220.1,192.6c15.2,0,27.5,12.3,27.5,27.5s-12.3,27.5-27.5,27.5s-27.5-12.3-27.5-27.5S204.9,192.6,220.1,192.6
		 M220.1,152.6c-37.3,0-67.5,30.2-67.5,67.5s30.2,67.5,67.5,67.5s67.5-30.2,67.5-67.5S257.3,152.6,220.1,152.6L220.1,152.6z"/>
</g>
<g>
	<path class="st0" d="M220,43.1c47.3,0,91.7,18.4,125.2,51.8c33.4,33.4,51.8,77.9,51.8,125.2s-18.4,91.7-51.8,125.2
		c-33.4,33.4-77.9,51.8-125.2,51.8s-91.7-18.4-125.2-51.8C61.5,311.8,43,267.4,43,220.1s18.4-91.7,51.8-125.2
		C128.3,61.5,172.8,43.1,220,43.1 M220,0.1C98.5,0.1,0,98.6,0,220.1s98.5,220,220,220s220-98.5,220-220S341.6,0.1,220,0.1L220,0.1z"
		/>
</g>
</svg>
