<?xml version="1.0" encoding="utf-8"?>
<!-- Generator: Adobe Illustrator 22.1.0, SVG Export Plug-In . SVG Version: 6.00 Build 0)  -->
<svg version="1.1" id="Layer_1" xmlns="http://www.w3.org/2000/svg" xmlns:xlink="http://www.w3.org/1999/xlink" x="0px" y="0px"
	 viewBox="0 0 440.1 440.1" style="enable-background:new 0 0 440.1 440.1;" xml:space="preserve">
<g>
	<path d="M220,30c50.8,0,98.5,19.8,134.4,55.6S410,169.3,410,220s-19.8,98.5-55.6,134.4S270.8,410,220,410s-98.5-19.8-134.4-55.6
		S30,270.8,30,220c0-21.9,3.7-43.4,11-63.9c7-19.8,17.3-38.1,30.4-54.6C107.8,56.1,161.9,30,220,30 M220,0
		C150.4,0,88.3,32.4,48,82.9C18,120.5,0,168.2,0,220c0,121.5,98.5,220,220,220s220-98.5,220-220S341.6,0,220,0L220,0z"/>
</g>
<g>
	<path d="M220.1,192.6c15.2,0,27.5,12.3,27.5,27.5s-12.3,27.5-27.5,27.5c-15.2,0-27.5-12.3-27.5-27.5S204.9,192.6,220.1,192.6
		 M220.1,152.6c-37.3,0-67.5,30.2-67.5,67.5s30.2,67.5,67.5,67.5s67.5-30.2,67.5-67.5S257.3,152.6,220.1,152.6L220.1,152.6z"/>
</g>
</svg>
