<?xml version="1.0" encoding="utf-8"?>
<!-- Generator: Adobe Illustrator 22.1.0, SVG Export Plug-In . SVG Version: 6.00 Build 0)  -->
<svg version="1.1" id="Layer_1" xmlns="http://www.w3.org/2000/svg" xmlns:xlink="http://www.w3.org/1999/xlink" x="0px" y="0px"
	 viewBox="0 0 2182.57 287.087" enable-background="new 0 0 2182.57 287.087" xml:space="preserve">
<g>
	<g>
		<g>
			<g>
				<path fill="#508FCC" d="M99.8,110.116V31.355c-21.749,0-39.382,17.632-39.382,39.382S78.051,110.116,99.8,110.116z"/>
			</g>
			<g>
				<path fill="#542E89" d="M139.182,70.736c0-21.749-17.632-39.382-39.382-39.382v78.763
					C121.55,110.116,139.182,92.485,139.182,70.736z"/>
			</g>
			<g>
				<path fill="#508FCC" d="M81.222,124.141c5.272-2.174,11.001-3.354,16.919-3.354l-6.537,0.057
					c-19.131-0.011-32.684-4.562-41.434-13.914c-9.073-9.696-13.485-23.597-13.485-42.499c0-7.267,1.054-13.982,3.134-19.959
					c2.101-6.037,4.991-11.471,8.59-16.148c5.916-7.689,4.472-18.757-3.217-24.672c-3.724-2.866-8.342-4.112-13.001-3.501
					c-4.66,0.608-8.805,2.993-11.671,6.718c-5.902,7.672-10.59,16.434-13.934,26.039C3.212,42.612,1.5,53.218,1.5,64.431
					c0,27.861,7.731,50.25,22.978,66.54c8.425,9.005,19.044,15.657,31.591,19.819c0.384-1.109,0.813-2.208,1.288-3.292
					c4.71-10.76,13.338-18.991,23.77-23.319"/>
			</g>
			<g>
				<polygon fill="#221F1F" points="105.913,120.855 98.278,120.788 105.9,120.855 				"/>
			</g>
			<g>
				<path fill="#542E89" d="M189.303,203.401c-6.248-9.605-15.381-17.457-26.411-22.71c-6.06-2.885-12.502-4.889-18.514-5.792
					c-0.284,1.25-0.617,2.489-1.009,3.714c-0.722,2.253-1.626,4.451-2.684,6.533c-7.648,15.053-22.86,24.404-39.696,24.404h36.774
					c3.476,0,15.652,3.209,22.045,13.038c6.07,9.33,5.313,22.711-2.25,39.771c-3.931,8.868,0.086,19.282,8.954,23.214
					c2.266,1.004,4.662,1.513,7.122,1.513c6.956,0,13.273-4.109,16.092-10.467C198.454,256.93,205.464,228.245,189.303,203.401z"/>
			</g>
			<g>
				<path fill="#221F1F" d="M81.127,124.18c0.032-0.013,0.063-0.025,0.095-0.038"/>
			</g>
			<g>
				<path fill="#C82D5A" d="M83.86,152.794c-0.008,0-0.016,0.001-0.024,0.001h0.051L83.86,152.794z"/>
			</g>
			<g>
				<g>
					<path fill="none" d="M83.86,152.794c-0.008,0-0.016,0.001-0.024,0.001h0.051L83.86,152.794z"/>
				</g>
				<g>
					<path fill="none" d="M98.083,155.975c-5.102,0.032-9.254,4.208-9.254,9.31c0,4.36,3.05,8.135,7.284,9.079h4.876
						c5.134,0,9.312-4.178,9.312-9.312c0-4.033-2.68-7.763-6.421-9.029l-5.743-0.05L98.083,155.975z"/>
				</g>
				<g>
					<path fill="#542E89" d="M81.127,124.18c-10.431,4.327-19.06,12.557-23.77,23.319c-0.475,1.084-0.903,2.183-1.288,3.292
						c-1.61,4.651-2.426,9.512-2.426,14.496c0,3.241,0.358,6.456,1.055,9.604c1.287-0.191,2.554-0.334,3.792-0.422
						c0.964-0.068,1.891-0.103,2.751-0.103h2.297h11.809h20.766c-4.234-0.945-7.284-4.718-7.284-9.079
						c0-5.102,4.151-9.28,9.254-9.31h0.054l5.743,0.05l5.777,0.051l4.352,0.038l0.088-0.004c1.566-0.074,3.108-0.183,4.639-0.311
						c7.544-0.626,14.659-1.891,21.185-3.793c1.074-0.311,2.155-0.649,3.274-1.024c0.438-0.147,0.882-0.297,1.334-0.457
						c11.869-4.17,22.065-10.748,30.304-19.555c15.248-16.292,22.978-38.679,22.978-66.541c0-11.213-1.712-21.819-5.088-31.523
						c-3.342-9.605-8.031-18.365-13.934-26.039c-2.866-3.725-7.01-6.11-11.671-6.718c-4.66-0.609-9.277,0.636-13.001,3.501
						c-7.689,5.914-9.131,16.982-3.217,24.672c3.6,4.679,6.489,10.112,8.59,16.148c2.079,5.976,3.134,12.69,3.134,19.959
						c0,18.902-4.41,32.804-13.485,42.5c-8.75,9.352-22.303,13.903-41.451,13.914l-1.792,0.011l-7.759-0.067
						c-5.918,0-11.647,1.18-16.919,3.354"/>
				</g>
			</g>
			<g>
				<path fill="#508FCC" d="M143.198,150.982c-1.118,0.374-2.2,0.713-3.274,1.024c-6.527,1.903-13.642,3.168-21.185,3.793
					c-1.532,0.128-3.074,0.237-4.639,0.311l-0.088,0.004l-4.352-0.038l-5.777-0.051c3.741,1.264,6.421,4.996,6.421,9.029
					c0,5.134-4.177,9.312-9.312,9.312h-4.876H75.347H63.539h-2.297c-0.86,0-1.785,0.034-2.751,0.103
					c-1.238,0.087-2.506,0.23-3.792,0.422c-6.03,0.896-12.498,2.904-18.585,5.802c-11.03,5.252-20.162,13.105-26.411,22.71
					c-16.161,24.844-9.15,53.529-0.422,73.217c2.818,6.358,9.135,10.467,16.092,10.467c2.46,0,4.856-0.509,7.122-1.513
					c8.868-3.931,12.885-14.346,8.954-23.214c-7.563-17.059-8.319-30.44-2.25-39.77c6.393-9.827,18.569-13.038,22.045-13.038h39.747
					c16.836,0,32.048-9.351,39.696-24.404c1.058-2.081,1.96-4.28,2.684-6.533c0.392-1.225,0.725-2.464,1.009-3.714
					c0.733-3.224,1.109-6.521,1.109-9.847C145.488,160.237,144.713,155.514,143.198,150.982z"/>
			</g>
		</g>
	</g>
	<g>
		<g>
			<path fill="#542E88" d="M410.306,206.79c2.933,3.909,2.606,7.492-0.976,10.424c-12.054,10.424-27.037,15.636-44.302,15.636
				c-41.369,0-64.497-22.476-64.497-64.497v-41.044c0-42.02,22.802-64.171,63.519-64.171c17.591,0,31.598,4.235,42.021,12.704
				c3.585,2.932,3.909,6.189,0.978,10.424l-9.122,12.704c-2.606,3.583-6.189,3.909-10.424,0.977
				c-5.863-4.235-13.03-6.189-21.174-6.189c-20.196,0-30.293,12.052-30.293,36.483v35.506c0,24.43,10.75,36.483,31.924,36.483
				c8.467,0,16.287-2.933,23.126-8.796c4.235-3.584,7.493-3.258,10.424,0.977L410.306,206.79z"/>
			<path fill="#542E88" d="M562.237,125.029v45.93c0,40.066-22.476,61.891-63.195,61.891c-41.369,0-63.519-21.825-63.519-61.891
				v-45.93c0-40.067,22.15-61.892,63.519-61.892C539.761,63.137,562.237,84.962,562.237,125.029z M526.731,127.634
				c0-22.476-9.12-33.877-27.689-33.877c-18.567,0-28.013,11.401-28.013,33.877v40.392c0,22.803,9.446,34.204,28.013,34.204
				c18.569,0,27.689-11.401,27.689-34.204V127.634z"/>
			<path fill="#542E88" d="M716.952,172.913c0,38.764-21.498,59.937-60.913,59.937s-61.241-21.173-61.241-59.937V74.538
				c0-4.886,2.607-7.492,7.491-7.492h20.524c4.885,0,7.491,2.606,7.491,7.492v96.746c0,20.523,8.796,30.946,26.059,30.946
				c17.265,0,26.061-10.424,26.061-30.946V74.538c0-4.886,2.606-7.492,7.491-7.492h19.545c4.887,0,7.491,2.606,7.491,7.492
				L716.952,172.913L716.952,172.913z"/>
			<path fill="#542E88" d="M749.505,124.377c0-40.718,18.891-61.24,56.678-61.24c14.008,0,26.387,2.932,36.484,9.121
				c3.909,2.28,4.885,5.864,2.606,10.099l-7.493,13.355c-1.954,4.235-5.211,4.886-10.098,2.605
				c-5.537-2.932-11.726-4.56-17.915-4.56c-16.613,0-24.758,9.772-24.758,29.642v98.049c0,4.887-2.604,7.492-7.491,7.492h-20.522
				c-4.887,0-7.491-2.605-7.491-7.492V124.377z"/>
			<path fill="#542E88" d="M987.274,127.634v43.325c0,40.066-22.476,61.891-63.845,61.891c-39.415,0-60.589-17.916-60.589-51.467
				c0-31.598,20.848-49.514,58.634-49.514h30.293v-1.628c0-25.735-10.098-36.483-32.574-36.483
				c-10.098,0-19.545,3.583-28.665,10.424c-4.235,2.932-7.493,2.605-10.424-1.629l-8.796-13.681
				c-2.932-4.235-2.28-7.491,1.628-10.424c14.333-10.098,30.945-15.31,49.513-15.31C964.472,63.137,987.274,84.962,987.274,127.634z
				 M951.768,168.026v-9.772h-25.409c-17.915,0-28.013,7.817-28.013,22.151c0,14.659,8.469,21.825,25.082,21.825
				C942.322,202.23,951.768,190.829,951.768,168.026z"/>
			<path fill="#542E88" d="M1155.876,225.683c0,36.809-23.778,59.285-63.845,59.285c-21.5,0-39.091-5.537-53.097-16.938
				c-3.583-2.933-3.909-6.19-1.302-10.424l8.469-13.03c2.606-4.561,6.189-5.212,10.424-1.628
				c10.098,7.491,21.498,11.401,33.552,11.401c20.196,0,30.293-10.099,30.293-30.294v-10.099h-0.652
				c-7.817,8.469-18.891,12.704-33.55,12.704c-36.81,0-57.006-21.825-57.006-61.891v-39.741c0-40.067,22.802-61.892,63.519-61.892
				c40.719,0,63.195,21.825,63.195,61.892V225.683z M1120.37,162.163V127.96c0-22.802-9.12-34.203-27.689-34.203
				c-18.567,0-28.013,11.401-28.013,34.203v34.203c0,22.477,9.446,33.878,28.013,33.878
				C1111.25,196.041,1120.37,184.64,1120.37,162.163z"/>
			<path fill="#542E88" d="M1312.876,151.739c0,4.886-2.606,7.492-7.493,7.492h-81.436v6.515c0,25.734,10.424,36.483,33.878,36.483
				c10.75,0,20.522-3.584,29.317-11.076c4.235-3.583,7.491-3.258,10.424,0.977l8.796,12.704c2.607,3.584,2.28,7.166-1.304,10.424
				c-13.028,11.727-29.315,17.59-48.535,17.59c-45.28,0-68.082-21.499-68.082-64.497v-43.324c0-40.067,22.152-61.892,62.219-61.892
				c40.065,0,62.217,21.825,62.217,61.892L1312.876,151.739L1312.876,151.739z M1278.998,132.521v-4.887
				c0-22.476-9.122-33.877-27.363-33.877c-18.567,0-27.689,11.401-27.689,33.877v4.887H1278.998z"/>
			<path fill="#4F8ECB" d="M1490.937,124.052v97.397c0,4.887-2.606,7.492-7.493,7.492h-20.522c-4.887,0-7.491-2.605-7.491-7.492
				v-95.118c0-21.825-8.796-32.574-26.711-32.574c-17.917,0-26.713,10.749-26.713,32.574v95.118c0,4.887-2.604,7.492-7.491,7.492
				h-20.522c-4.887,0-7.493-2.605-7.493-7.492V8.412c0-4.887,2.607-7.492,7.493-7.492h20.522c4.887,0,7.491,2.605,7.491,7.492
				v67.103h0.652c7.491-8.143,18.893-12.378,33.878-12.378C1471.718,63.137,1490.937,84.636,1490.937,124.052z"/>
			<path fill="#4F8ECB" d="M1647.854,151.739c0,4.886-2.606,7.492-7.491,7.492h-81.436v6.515c0,25.734,10.424,36.483,33.878,36.483
				c10.748,0,20.522-3.584,29.317-11.076c4.235-3.583,7.491-3.258,10.424,0.977l8.794,12.704c2.606,3.584,2.28,7.166-1.302,10.424
				c-13.03,11.727-29.317,17.59-48.536,17.59c-45.278,0-68.08-21.499-68.08-64.497v-43.324c0-40.067,22.15-61.892,62.217-61.892
				s62.217,21.825,62.217,61.892v26.712H1647.854z M1613.976,132.521v-4.887c0-22.476-9.12-33.877-27.361-33.877
				c-18.569,0-27.689,11.401-27.689,33.877v4.887H1613.976z"/>
			<path fill="#4F8ECB" d="M1803.557,127.634v43.325c0,40.066-22.476,61.891-63.847,61.891c-39.415,0-60.589-17.916-60.589-51.467
				c0-31.598,20.848-49.514,58.634-49.514h30.295v-1.628c0-25.735-10.098-36.483-32.576-36.483
				c-10.098,0-19.543,3.583-28.665,10.424c-4.235,2.932-7.491,2.605-10.424-1.629l-8.796-13.681c-2.93-4.235-2.28-7.491,1.63-10.424
				c14.333-10.098,30.945-15.31,49.513-15.31C1780.755,63.137,1803.557,84.962,1803.557,127.634z M1768.051,168.026v-9.772h-25.408
				c-17.915,0-28.015,7.817-28.015,22.151c0,14.659,8.469,21.825,25.082,21.825C1758.603,202.23,1768.051,190.829,1768.051,168.026z
				"/>
			<path fill="#4F8ECB" d="M1861.653,228.941c-4.885,0-7.491-2.605-7.491-7.492V8.412c0-4.887,2.606-7.492,7.491-7.492h20.522
				c4.887,0,7.493,2.605,7.493,7.492v213.036c0,4.887-2.607,7.492-7.493,7.492L1861.653,228.941L1861.653,228.941z"/>
			<path fill="#4F8ECB" d="M2029.118,218.191c1.628,4.561,0.326,7.818-3.909,9.773c-7.165,3.258-16.287,4.886-27.363,4.886
				c-36.482,0-54.726-18.241-54.726-55.051V97.666h-13.68c-4.887,0-7.491-2.606-7.491-7.492V74.538c0-4.886,2.604-7.492,7.491-7.492
				h13.68V32.191c0-4.887,2.606-7.492,7.493-7.492h20.522c4.887,0,7.491,2.605,7.491,7.492v34.854h39.417
				c4.885,0,7.491,2.606,7.491,7.492v15.636c0,4.886-2.606,7.492-7.491,7.492h-39.417v80.133c0,16.287,7.819,24.431,23.454,24.431
				c4.235,0,8.796-0.977,13.356-2.606c4.885-1.628,8.143-0.326,9.446,4.235L2029.118,218.191z"/>
			<path fill="#4F8ECB" d="M951.747,131.784h48.945c4.885,0,7.491,2.606,7.491,7.492v11.432c0,4.886-2.606,7.492-7.491,7.492
				h-48.945V131.784z"/>
			<path fill="#542E88" d="M1768.159,131.784h48.945c4.885,0,7.491,2.606,7.491,7.492v11.432c0,4.886-2.606,7.492-7.491,7.492
				h-48.945V131.784z"/>
			<path fill="#4F8ECB" d="M2182.57,124.052v97.397c0,4.887-2.606,7.492-7.493,7.492h-20.522c-4.887,0-7.491-2.605-7.491-7.492
				v-95.118c0-21.825-8.796-32.574-26.711-32.574c-17.917,0-26.713,10.749-26.713,32.574v95.118c0,4.887-2.604,7.492-7.491,7.492
				h-20.522c-4.887,0-7.493-2.605-7.493-7.492V8.412c0-4.887,2.606-7.492,7.493-7.492h20.522c4.887,0,7.491,2.605,7.491,7.492
				v67.103h0.652c7.491-8.143,18.893-12.378,33.878-12.378C2163.351,63.137,2182.57,84.636,2182.57,124.052z"/>
		</g>
	</g>
</g>
</svg>
