<?xml version="1.0" encoding="utf-8"?>
<!-- Generator: Adobe Illustrator 22.1.0, SVG Export Plug-In . SVG Version: 6.00 Build 0)  -->
<svg version="1.1" id="Layer_1" xmlns="http://www.w3.org/2000/svg" xmlns:xlink="http://www.w3.org/1999/xlink" x="0px" y="0px"
	 viewBox="0 0 17.3 16" style="enable-background:new 0 0 17.3 16;" xml:space="preserve">
<style type="text/css">
	.st0{fill:#508FCC;}
</style>
<path class="st0" d="M14.8,5c-1.1,0.2-1.8,1.3-1.5,2.4c0.1,0.7,0.6,1.2,1.2,1.4v1.5c0,2.1-1.5,3.9-3.6,4.2c-2.2,0.2-4.2-1.4-4.4-3.6
	c0-0.1,0-0.3,0-0.4V9.9C9.1,9.4,11,7.2,11,4.5V2c0-1.1-0.9-2-2-2H7.8C7.3,0,7,0.3,7,0.8s0.3,0.8,0.8,0.8H9c0.3,0,0.5,0.2,0.5,0.5
	v2.3c0,2.1-1.5,3.9-3.6,4.2C3.7,8.7,1.7,7.1,1.5,4.9c0-0.1,0-0.3,0-0.4V2c0-0.3,0.2-0.5,0.5-0.5h1.2C3.7,1.5,4,1.2,4,0.8
	S3.7,0,3.2,0l0,0H2C0.9,0,0,0.9,0,2v2.5C0,7.3,2.2,9.7,5,10v0.3c0,2.9,2.1,5.4,5,5.7c3,0.3,5.7-1.9,6-4.9c0-0.2,0-0.4,0-0.5V8.9
	c1-0.4,1.5-1.6,1.1-2.6C16.7,5.4,15.8,4.8,14.8,5z"/>
</svg>
