<?xml version="1.0" encoding="utf-8"?>
<!-- Generator: Adobe Illustrator 21.1.0, SVG Export Plug-In . SVG Version: 6.00 Build 0)  -->
<svg version="1.1" id="Layer_1" xmlns="http://www.w3.org/2000/svg" xmlns:xlink="http://www.w3.org/1999/xlink" x="0px" y="0px"
	 viewBox="0 0 441.3 441.5" style="enable-background:new 0 0 441.3 441.5;" xml:space="preserve">
<g>
	<path d="M402.8,220.8l36.4-63.1c2.8-4.8,2.8-10.7,0-15.5l-40.9-70.8c-2.8-4.8-7.9-7.8-13.4-7.8h-77.6L275,7.8
		C272.2,3,267.1,0,261.6,0h-81.8c-5.5,0-10.7,3-13.4,7.8l-32.3,55.9H56.4c-5.5,0-10.7,3-13.4,7.8L2.1,142.2
		c-2.8,4.8-2.8,10.7,0,15.5l36.4,63.1L2.1,284c-2.8,4.8-2.8,10.7,0,15.5L43,370.3c2.8,4.8,7.9,7.8,13.4,7.8h77.8l32.2,55.7
		c2.8,4.8,7.9,7.8,13.4,7.8h81.8c5.5,0,10.7-3,13.4-7.8l32.2-55.7h77.7c5.5,0,10.7-3,13.4-7.8l40.9-70.8c2.8-4.8,2.8-10.7,0-15.5
		L402.8,220.8z M315.6,94.6h60.3l32,55.3l-32,55.3H312l-30.2-52.2L315.6,94.6z M285.2,220.8l-27.7,48h-73.7l-27.7-48l27.8-48.2h73.5
		L285.2,220.8z M188.7,31h63.9l30.2,52.2l-33.7,58.4h-56.8l-33.7-58.4L188.7,31z M33.4,150l32-55.3h60.4l33.7,58.4l-30.2,52.3H65.4
		L33.4,150z M125.7,347.1H65.4l-32-55.3l32-55.3h63.9l30.2,52.2L125.7,347.1z M252.6,410.5h-63.9l-30.2-52.2l33.7-58.4H249
		l33.8,58.5L252.6,410.5z M375.9,347.1h-60.2l-33.8-58.5l30.1-52.2h63.9l32,55.3L375.9,347.1z"/>
	<path d="M98.4,173.6c12.8,0,23.3-10.4,23.3-23.3S111.2,127,98.4,127s-23.3,10.4-23.3,23.3S85.6,173.6,98.4,173.6z M98.4,142
		c4.6,0,8.3,3.7,8.3,8.3s-3.7,8.3-8.3,8.3s-8.3-3.7-8.3-8.3S93.8,142,98.4,142z"/>
	<path d="M222,106.9c12.8,0,23.3-10.4,23.3-23.3S234.8,60.3,222,60.3c-12.8,0-23.3,10.4-23.3,23.3S209.2,106.9,222,106.9z M222,75.3
		c4.6,0,8.3,3.7,8.3,8.3s-3.7,8.3-8.3,8.3c-4.6,0-8.3-3.7-8.3-8.3S217.4,75.3,222,75.3z"/>
	<path d="M222,335.3c-12.8,0-23.3,10.4-23.3,23.3c0,12.8,10.4,23.3,23.3,23.3c12.8,0,23.3-10.4,23.3-23.3
		C245.3,345.7,234.8,335.3,222,335.3z M222,366.9c-4.6,0-8.3-3.7-8.3-8.3s3.7-8.3,8.3-8.3c4.6,0,8.3,3.7,8.3,8.3
		S226.6,366.9,222,366.9z"/>
	<path d="M98.4,268.4c-12.8,0-23.3,10.4-23.3,23.3S85.6,315,98.4,315s23.3-10.4,23.3-23.3S111.2,268.4,98.4,268.4z M98.4,300
		c-4.6,0-8.3-3.7-8.3-8.3s3.7-8.3,8.3-8.3s8.3,3.7,8.3,8.3S103,300,98.4,300z"/>
	<path d="M344,173.6c12.8,0,23.3-10.4,23.3-23.3S356.8,127,344,127s-23.3,10.4-23.3,23.3S331.1,173.6,344,173.6z M344,142
		c4.6,0,8.3,3.7,8.3,8.3s-3.7,8.3-8.3,8.3s-8.3-3.7-8.3-8.3S339.4,142,344,142z"/>
	<path d="M344,268.4c-12.8,0-23.3,10.4-23.3,23.3S331.1,315,344,315s23.3-10.4,23.3-23.3S356.8,268.4,344,268.4z M344,300
		c-4.6,0-8.3-3.7-8.3-8.3s3.7-8.3,8.3-8.3s8.3,3.7,8.3,8.3S348.6,300,344,300z"/>
</g>
</svg>
