<?xml version="1.0" encoding="utf-8"?>
<!-- Generator: Adobe Illustrator 21.1.0, SVG Export Plug-In . SVG Version: 6.00 Build 0)  -->
<svg version="1.1" id="Layer_1" xmlns="http://www.w3.org/2000/svg" xmlns:xlink="http://www.w3.org/1999/xlink" x="0px" y="0px"
	 viewBox="0 0 440.6 441.7" style="enable-background:new 0 0 440.6 441.7;" xml:space="preserve">
<g>
	<g>
		<path d="M317.9,244.1l-48.3-94.7c-2.6-5.2-8-8.5-13.8-8.5h-70c-5.8,0-11.1,3.2-13.7,8.3L122.7,244c-4,7.6-1,17,6.6,20.9
			c7.6,4,17,1,20.9-6.6l45-86.4h51.1l44,86.2c2.7,5.4,8.2,8.5,13.8,8.5c2.4,0,4.8-0.5,7-1.7C318.7,261.1,321.8,251.8,317.9,244.1z"
			/>
		<circle cx="222.6" cy="55.8" r="55.8"/>
		<path d="M251.1,267h-62.4c-8.5,0-15.4,6.9-15.5,15.4l-1,143.7c-0.1,8.6,6.8,15.5,15.4,15.6h0.1c8.5,0,15.4-6.9,15.5-15.4
			l0.9-128.3h31.7l1.5,128.4c0.1,8.5,7,15.3,15.5,15.3c0.1,0,0.1,0,0.2,0c8.6-0.1,15.4-7.1,15.3-15.7l-1.6-143.7
			C266.5,273.8,259.6,267,251.1,267z"/>
	</g>
</g>
</svg>
