<?xml version="1.0" encoding="utf-8"?>
<!-- Generator: Adobe Illustrator 21.1.0, SVG Export Plug-In . SVG Version: 6.00 Build 0)  -->
<svg version="1.1" id="Layer_1" xmlns="http://www.w3.org/2000/svg" xmlns:xlink="http://www.w3.org/1999/xlink" x="0px" y="0px"
	 viewBox="0 0 440.1 440" style="enable-background:new 0 0 440.1 440;" xml:space="preserve">
<g>
	<path d="M409.5,266c-16.8,0-30.5,13.7-30.5,30.5V379H61V61h82.2c16.8,0,30.5-13.7,30.5-30.5S160,0,143.2,0H30.5
		C13.7,0,0,13.7,0,30.5v379C0,426.3,13.7,440,30.5,440h379c16.8,0,30.5-13.7,30.5-30.5v-113C440,279.7,426.3,266,409.5,266z"/>
	<path d="M417.1,0.2H259.9c-9.3,0-17.6,5.6-21.2,14.1c-3.6,8.5-1.7,18.4,4.8,25l54.3,55.4L194.5,197.9c-13.1,13.1-13.1,34.3,0,47.4
		c6.5,6.5,15.1,9.8,23.7,9.8s17.1-3.3,23.7-9.8l102.7-102.7l56.1,57.3c4.4,4.5,10.4,6.9,16.4,6.9c2.9,0,5.9-0.6,8.7-1.7
		c8.7-3.5,14.3-11.9,14.3-21.3V23.2C440.1,10.4,429.8,0.2,417.1,0.2z"/>
</g>
</svg>
